<?xml version="1.0" encoding="UTF-8" standalone="no"?>
<svg
   xmlns:dc="http://purl.org/dc/elements/1.1/"
   xmlns:cc="http://creativecommons.org/ns#"
   xmlns:rdf="http://www.w3.org/1999/02/22-rdf-syntax-ns#"
   xmlns:svg="http://www.w3.org/2000/svg"
   xmlns="http://www.w3.org/2000/svg"
   xmlns:sodipodi="http://sodipodi.sourceforge.net/DTD/sodipodi-0.dtd"
   xmlns:inkscape="http://www.inkscape.org/namespaces/inkscape"
   version="1.1"
   id="svg2"
   xml:space="preserve"
   width="4666.6665"
   height="3333.3333"
   viewBox="0 0 4666.6665 3333.3333"
   sodipodi:docname="TaeAugust07.eps"><metadata
     id="metadata8"><rdf:RDF><cc:Work
         rdf:about=""><dc:format>image/svg+xml</dc:format><dc:type
           rdf:resource="http://purl.org/dc/dcmitype/StillImage" /></cc:Work></rdf:RDF></metadata><defs
     id="defs6"><clipPath
       clipPathUnits="userSpaceOnUse"
       id="clipPath168"><path
         d="m 11282,14071.6 113.2,-1014.9 c 0,0 -513.6,-962.7 -175,-1213.8 338.6,-251.1 650.6,19 741.9,646.8 91.4,627.8 -247.3,1784.5 -547.9,2009 -300.5,224.5 -1392.5,205.5 -1499.06,76.1 -106.54,-129.4 -1172.36,-2513.5 -752.45,-3002.4 419.9,-488.8 1773.61,-43.8 1773.61,-43.8 l -219.3,1416.4 -595.4,419.9 c 0,0 -35,770.3 -30.9,758.2 4,-12.2 83,377.5 83,377.5 374,108.1 657.1,121.5 1026.1,-27.5 z"
         id="path166" /></clipPath></defs><sodipodi:namedview
     pagecolor="#ffffff"
     bordercolor="#666666"
     borderopacity="1"
     objecttolerance="10"
     gridtolerance="10"
     guidetolerance="10"
     inkscape:pageopacity="0"
     inkscape:pageshadow="2"
     inkscape:window-width="640"
     inkscape:window-height="480"
     id="namedview4" /><g
     id="g10"
     inkscape:groupmode="layer"
     inkscape:label="ink_ext_XXXXXX"
     transform="matrix(1.3333333,0,0,-1.3333333,0,3333.3333)"><g
       id="g12"
       transform="scale(0.1)"><path
         d="M 35000,0 H 0 V 25000 H 35000 V 0"
         style="fill:#ffffff;fill-opacity:1;fill-rule:nonzero;stroke:none"
         id="path14" /><path
         d="m 4641.33,3300 c 2343.77,3142.1 821.91,5927.8 70.62,9653.8 -1841.03,5934.2 5327.35,10724.4 12496.15,6088.1 4447.1,-2876.1 8599.3,35 11934.8,-2987.1 2652.7,-2403.4 11.1,-7475 -46.2,-9760.5 C 29051.6,4492.7 30602.2,3300 30602.2,3300 H 4641.33"
         style="fill:#c7ebff;fill-opacity:1;fill-rule:nonzero;stroke:none"
         id="path16" /><path
         d="M 32047.1,3181.7 H 2652.92 c -28.81,0 -52.17,23.3 -52.17,52.1 v 0 c 0,28.9 23.36,52.2 52.17,52.2 H 32047.1 c 28.8,0 52.2,-23.3 52.2,-52.2 v 0 c 0,-28.8 -23.4,-52.1 -52.2,-52.1"
         style="fill:#000000;fill-opacity:1;fill-rule:nonzero;stroke:none"
         id="path18" /><path
         d="m 27500.2,4120.6 v 0 c 671.9,0 1216.6,544.6 1216.6,1216.5 V 6995.7 H 26283.6 V 5337.1 c 0,-671.9 544.7,-1216.5 1216.6,-1216.5"
         style="fill:#6bb2e3;fill-opacity:1;fill-rule:nonzero;stroke:none"
         id="path20" /><path
         d="m 28716.8,3168 h 134.8 v 2574.3 h -134.8 V 3168"
         style="fill:#425899;fill-opacity:1;fill-rule:nonzero;stroke:none"
         id="path22" /><path
         d="m 26148.8,3168 h 134.8 v 2574.3 h -134.8 V 3168"
         style="fill:#425899;fill-opacity:1;fill-rule:nonzero;stroke:none"
         id="path24" /><path
         d="m 27180.7,3168 h 134.8 v 2574.3 h -134.8 V 3168"
         style="fill:#425899;fill-opacity:1;fill-rule:nonzero;stroke:none"
         id="path26" /><path
         d="m 28851.6,3985.7 v 134.9 h -2574.2 v -134.9 h 2574.2"
         style="fill:#425899;fill-opacity:1;fill-rule:nonzero;stroke:none"
         id="path28" /><path
         d="m 27095.5,10128.6 c 227.3,-121 47.7,-418.2 140.8,-700 93,-281.7 467.1,-274.9 325.8,-779.1 -87,-310.5 -395.2,-115.9 -388.2,-519.6 7.1,-403.7 160,-393.8 41.3,-601.4 -206.8,-361.8 -911.8,-159.4 -917.3,244.6 -5.6,404.1 332.6,541.5 46.9,729.4 -285.7,187.9 -400,273.4 -212,542.1 232.8,332.6 593.7,322.5 492.7,582.1 -100.9,259.6 169.3,661.9 470,501.9"
         style="fill:#a3cfff;fill-opacity:1;fill-rule:nonzero;stroke:none"
         id="path30" /><path
         d="m 26975.4,7004.8 -59.3,-17 c -402.3,1402 -25.6,2722.1 -21.7,2735.2 l 59.1,-17.3 c -3.8,-13 -375.3,-1316.7 21.9,-2700.9"
         style="fill:#425899;fill-opacity:1;fill-rule:nonzero;stroke:none"
         id="path32" /><path
         d="m 30112,10422.8 c 167.8,-301 -249.9,-504.9 -349.8,-889.3 -99.9,-384.4 347.8,-494.9 -177.2,-959.3 -323.3,-286 -402.6,-121.9 -495.2,-728.8 -81.6,-534.2 -509.5,-52.3 -793.6,-378.2 -366.6,-420.5 -1018,426.3 -730.9,884.7 287.1,458.3 655.1,362.9 470.2,781.7 -184.8,418.8 -7.8,750.8 398.7,916.4 503.2,205 710.1,-215.5 785,149.7 75,365.2 671,621.3 892.8,223.1"
         style="fill:#a1d3ff;fill-opacity:1;fill-rule:nonzero;stroke:none"
         id="path34" /><path
         d="m 27708.9,6997.4 c 558.7,1845.9 1922.8,3041.1 1936.5,3053 l -53.9,62.4 c -13.9,-12 -1396,-1223 -1961.5,-3091.5 l 78.9,-23.9"
         style="fill:#425899;fill-opacity:1;fill-rule:nonzero;stroke:none"
         id="path36" /><path
         d="m 6992.55,15007.3 c 24.98,-151.5 109.19,-288.9 224.83,-388.1 115.64,-99.1 263.11,-160.7 414.6,-160.7 h 1421.51 c 200.25,0 357.79,107.6 427.09,267.9 35.46,82.2 47.95,178.1 31.03,280.9 -24.98,151.5 -109.2,288.8 -224.43,388 -116.04,99.1 -263.11,160.7 -414.6,160.7 H 7451.07 c -70.11,0 -134.98,-13.3 -192.59,-37 -191.79,-79.8 -304.21,-278.9 -265.93,-511.7"
         style="fill:#61b8ff;fill-opacity:1;fill-rule:nonzero;stroke:none"
         id="path38" /><path
         d="m 8981.54,13906.8 v 0 c 54.44,0 93.09,53.1 76.39,104.9 l -190.91,592.4 c -10.69,33.2 -41.55,55.6 -76.39,55.6 v 0 c -54.45,0 -93.1,-53 -76.4,-104.8 l 190.92,-592.4 c 10.68,-33.2 41.55,-55.7 76.39,-55.7"
         style="fill:#123e80;fill-opacity:1;fill-rule:nonzero;stroke:none"
         id="path40" /><path
         d="m 8040.2,13906.8 v 0 c 54.44,0 93.09,53.1 76.39,104.9 l -190.91,592.4 c -10.69,33.2 -41.55,55.6 -76.39,55.6 v 0 c -54.45,0 -93.09,-53 -76.4,-104.8 l 190.92,-592.4 c 10.68,-33.2 41.55,-55.7 76.39,-55.7"
         style="fill:#123e80;fill-opacity:1;fill-rule:nonzero;stroke:none"
         id="path42" /><path
         d="m 7227.85,15238.9 c 24.98,-151.5 109.19,-288.9 224.83,-388.4 115.64,-99.1 263.11,-160.7 414.61,-160.7 h 1421.5 c 69.71,0 134.17,12.8 191.79,36.6 35.46,82.2 47.95,178.1 31.03,280.9 -24.98,151.5 -109.2,288.8 -224.43,388 -116.04,99.1 -263.11,160.7 -414.6,160.7 H 7451.07 c -70.11,0 -134.98,-13.3 -192.59,-37 -35.06,-82.2 -47.55,-177.7 -30.63,-280.1"
         style="fill:#9eddff;fill-opacity:1;fill-rule:nonzero;stroke:none"
         id="path44" /><path
         d="m 13293,3554.7 h -267.8 v 498.5 h 267.8 v -498.5"
         style="fill:#0d192b;fill-opacity:1;fill-rule:nonzero;stroke:none"
         id="path46" /><path
         d="m 11284.1,3554.7 h -267.9 v 498.5 h 267.9 v -498.5"
         style="fill:#0d192b;fill-opacity:1;fill-rule:nonzero;stroke:none"
         id="path48" /><path
         d="m 9038.62,3554.7 h -267.87 v 498.5 h 267.87 v -498.5"
         style="fill:#0d192b;fill-opacity:1;fill-rule:nonzero;stroke:none"
         id="path50" /><path
         d="m 9175.47,3556.2 c 0,-178.4 -91.46,-323 -204.29,-323 -112.84,0 -204.3,144.6 -204.3,323 0,178.4 91.46,323.1 204.3,323.1 112.83,0 204.29,-144.7 204.29,-323.1"
         style="fill:#0d192b;fill-opacity:1;fill-rule:nonzero;stroke:none"
         id="path52" /><path
         d="m 9373.46,3556.2 c 0,-178.4 -91.46,-323 -204.29,-323 -112.83,0 -204.3,144.6 -204.3,323 0,178.4 91.47,323.1 204.3,323.1 112.83,0 204.29,-144.7 204.29,-323.1"
         style="fill:#0d192b;fill-opacity:1;fill-rule:nonzero;stroke:none"
         id="path54" /><path
         d="m 9247.94,3259.3 c -84.99,-66.3 -322.56,-36.2 -355.78,-1.9 l -1.51,595.9 c 63.76,55.8 288.69,53.8 357.19,3 l 0.1,-597"
         style="fill:#0d192b;fill-opacity:1;fill-rule:nonzero;stroke:none"
         id="path56" /><path
         d="m 9328.44,3565 c 0,-122.3 -62.68,-221.4 -140,-221.4 -77.32,0 -140,99.1 -140,221.4 0,122.2 62.68,221.3 140,221.3 77.32,0 140,-99.1 140,-221.3"
         style="fill:#1e62cc;fill-opacity:1;fill-rule:nonzero;stroke:none"
         id="path58" /><path
         d="m 9258.93,3558.6 c 0,-74.5 -38.2,-134.8 -85.31,-134.8 -47.12,0 -85.31,60.3 -85.31,134.8 0,74.5 38.19,134.9 85.31,134.9 47.11,0 85.31,-60.4 85.31,-134.9"
         style="fill:#0d192b;fill-opacity:1;fill-rule:nonzero;stroke:none"
         id="path60" /><path
         d="m 10905.4,3556.2 c 0,-178.4 91.5,-323 204.3,-323 112.9,0 204.3,144.6 204.3,323 0,178.4 -91.4,323.1 -204.3,323.1 -112.8,0 -204.3,-144.7 -204.3,-323.1"
         style="fill:#0d192b;fill-opacity:1;fill-rule:nonzero;stroke:none"
         id="path62" /><path
         d="m 10707.5,3556.2 c 0,-178.4 91.4,-323 204.3,-323 112.8,0 204.3,144.6 204.3,323 0,178.4 -91.5,323.1 -204.3,323.1 -112.9,0 -204.3,-144.7 -204.3,-323.1"
         style="fill:#0d192b;fill-opacity:1;fill-rule:nonzero;stroke:none"
         id="path64" /><path
         d="m 10833,3259.3 c 85,-66.3 322.5,-36.2 355.8,-1.9 l 1.5,595.9 c -63.8,55.8 -288.7,53.8 -357.2,3 l -0.1,-597"
         style="fill:#0d192b;fill-opacity:1;fill-rule:nonzero;stroke:none"
         id="path66" /><path
         d="m 10752.5,3565 c 0,-122.3 62.7,-221.4 140,-221.4 77.3,0 140,99.1 140,221.4 0,122.2 -62.7,221.3 -140,221.3 -77.3,0 -140,-99.1 -140,-221.3"
         style="fill:#1e62cc;fill-opacity:1;fill-rule:nonzero;stroke:none"
         id="path68" /><path
         d="m 10822,3558.6 c 0,-74.5 38.2,-134.8 85.3,-134.8 47.1,0 85.3,60.3 85.3,134.8 0,74.5 -38.2,134.9 -85.3,134.9 -47.1,0 -85.3,-60.4 -85.3,-134.9"
         style="fill:#0d192b;fill-opacity:1;fill-rule:nonzero;stroke:none"
         id="path70" /><path
         d="m 12946,3556.2 c 0,-178.4 91.4,-323 204.3,-323 112.8,0 204.3,144.6 204.3,323 0,178.4 -91.5,323.1 -204.3,323.1 -112.9,0 -204.3,-144.7 -204.3,-323.1"
         style="fill:#0d192b;fill-opacity:1;fill-rule:nonzero;stroke:none"
         id="path72" /><path
         d="m 12748,3556.2 c 0,-178.4 91.4,-323 204.3,-323 112.8,0 204.3,144.6 204.3,323 0,178.4 -91.5,323.1 -204.3,323.1 -112.9,0 -204.3,-144.7 -204.3,-323.1"
         style="fill:#0d192b;fill-opacity:1;fill-rule:nonzero;stroke:none"
         id="path74" /><path
         d="m 12873.5,3259.3 c 85,-66.3 322.6,-36.2 355.8,-1.9 l 1.5,595.9 c -63.8,55.8 -288.7,53.8 -357.2,3 l -0.1,-597"
         style="fill:#0d192b;fill-opacity:1;fill-rule:nonzero;stroke:none"
         id="path76" /><path
         d="m 12793,3565 c 0,-122.3 62.7,-221.4 140,-221.4 77.3,0 140,99.1 140,221.4 0,122.2 -62.7,221.3 -140,221.3 -77.3,0 -140,-99.1 -140,-221.3"
         style="fill:#1e62cc;fill-opacity:1;fill-rule:nonzero;stroke:none"
         id="path78" /><path
         d="m 12862.5,3558.6 c 0,-74.5 38.2,-134.8 85.3,-134.8 47.1,0 85.3,60.3 85.3,134.8 0,74.5 -38.2,134.9 -85.3,134.9 -47.1,0 -85.3,-60.4 -85.3,-134.9"
         style="fill:#0d192b;fill-opacity:1;fill-rule:nonzero;stroke:none"
         id="path80" /><path
         d="m 11384.7,4139.3 h -390.2 v 4063.9 h 390.2 V 4139.3"
         style="fill:#0d192b;fill-opacity:1;fill-rule:nonzero;stroke:none"
         id="path82" /><path
         d="m 13478.9,4004.1 c 0.5,3.4 3,6.7 3,10 0,215.2 -1063.6,389.6 -2375.8,389.6 -1312.13,0 -2375.84,-174.4 -2375.84,-389.6 0,-3.3 2.57,-6.6 3.08,-10 h 4745.56"
         style="fill:#1a56b3;fill-opacity:1;fill-rule:nonzero;stroke:none"
         id="path84" /><path
         d="m 10865.4,6996.9 h 634.3 v 773.6 h -634.3 v -773.6"
         style="fill:#1a56b3;fill-opacity:1;fill-rule:nonzero;stroke:none"
         id="path86" /><path
         d="m 10865.4,4274.1 h 634.3 v 773.6 h -634.3 v -773.6"
         style="fill:#1a56b3;fill-opacity:1;fill-rule:nonzero;stroke:none"
         id="path88" /><path
         d="m 9997.71,14272.6 v -0.8 c -8.38,0.8 -16.77,0.8 -25.15,0.8 h 25.15"
         style="fill:#4a82db;fill-opacity:1;fill-rule:nonzero;stroke:none"
         id="path90" /><path
         d="m 8717.56,9148.3 h 34.37 l 15.51,-67.5 -21.8,29.4 z m -1729.39,4740.3 c 0,-38.6 4.61,-78.4 14.25,-119.5 L 8317.23,8687.2 c 5.87,-24.7 12.99,-49 22.21,-72.9 97.26,-387.4 450.22,-656.5 850.55,-645.6 l 1374.51,35.6 h 2708.9 c 163.9,0 311.4,64.2 418.3,167.7 107.3,103.6 174,246.5 174,404.5 0,56.2 -8.8,109.9 -25.6,160.2 -75.9,231.8 -314,390.2 -582.7,390.2 0,0 -1218.2,-33.1 -1573.2,308.1 -355.5,341.7 -1156.4,4311 -1156.4,4311 -67.9,282.2 -353.3,512.7 -645.52,525.7 -8.8,0.8 -17.6,0.8 -25.99,0.8 0,0 -1839,16.4 -2402.81,13.9 -42.76,0 -78.39,-0.4 -105.22,-0.9 -24.73,-0.4 -40.24,-0.8 -45.69,-1.2 -1.26,-0.4 -1.68,-0.4 -1.68,-0.4 -190.31,-42 -312.72,-197.1 -312.72,-395.3"
         style="fill:#9eddff;fill-opacity:1;fill-rule:nonzero;stroke:none"
         id="path92" /><path
         d="m 8846.83,8002.5 c -0.52,-2.5 -2.94,-5 -2.94,-7.5 0,-161.7 1014.18,-292.8 2265.21,-292.8 1251.1,0 2265.3,131.1 2265.3,292.8 0,2.5 -2.5,5 -3,7.5 H 8846.83"
         style="fill:#1a56b3;fill-opacity:1;fill-rule:nonzero;stroke:none"
         id="path94" /><path
         d="m 6988.17,13888.6 c 0,-38.6 4.61,-78.4 14.25,-119.5 L 8317.23,8687.2 c 5.87,-24.7 12.99,-49 22.21,-72.9 97.26,-387.4 450.22,-656.5 850.55,-645.6 l 1374.51,35.6 h 2708.9 c 163.9,0 311.4,64.2 418.3,167.7 107.3,103.6 174,246.5 174,404.5 0,56.2 -8.8,109.9 -25.6,160.2 -155.1,-403.6 -4682.69,-431.9 -4997.51,90.6 -307.69,267 -966.15,4814.8 -1389.11,5459.1 -42.76,0 -78.39,-0.4 -105.22,-0.9 -24.73,-0.4 -40.24,-0.8 -45.69,-1.2 -1.26,-0.4 -1.68,-0.4 -1.68,-0.4 -190.31,-42 -312.72,-197.1 -312.72,-395.3"
         style="fill:#61b8ff;fill-opacity:1;fill-rule:nonzero;stroke:none"
         id="path96" /><path
         d="m 9273.91,13635.3 c 418.24,311.6 1853.39,553.6 2771.89,123 145.9,-138.2 355.9,-639.9 487.1,-1111.4 l 362.9,-3935.8 H 9790.56 l -516.65,4924.2"
         style="fill:#aae0ff;fill-opacity:1;fill-rule:nonzero;stroke:none"
         id="path98" /><path
         d="m 10938.9,13452.7 c -493.7,-71.8 -800.7,272.7 -872.9,416.8 l 198.7,1233.5 401.7,-179.3 c 164.2,-13.6 328.3,-53 469.4,-108.7 l 127.4,-657.9 28.1,-142.6 c 64.1,-140.4 141.3,-489.9 -352.4,-561.8"
         style="fill:#f7a594;fill-opacity:1;fill-rule:nonzero;stroke:none"
         id="path100" /><path
         d="m 10393.2,14789.7 c 16.1,-152.6 216.9,-771.1 883.5,-706.8 l -123.7,643.4 -759.8,63.4"
         style="fill:#e6836f;fill-opacity:1;fill-rule:nonzero;stroke:none"
         id="path102" /><path
         d="m 11945,15560.4 c -22.8,-200.5 -78.4,-638.6 -155.7,-821.9 -117.6,-279.1 -481.5,-504.9 -719.1,-466.5 -268,65.2 -589.5,270.6 -721.4,508.3 -61.7,166.7 -162.1,545.7 -165.3,847.1 -6.6,628.5 537.3,982.8 1055.1,924 517.8,-58.7 777.6,-366 706.4,-991"
         style="fill:#f7a594;fill-opacity:1;fill-rule:nonzero;stroke:none"
         id="path104" /><path
         d="m 10223,15200.4 c -40.3,219.9 124.1,246 226.4,50.6 22.3,147.5 5.7,608.3 192.5,694.2 212.3,101.1 883.8,-209 1392.9,50.3 0,0 -65.8,707.2 -1104.9,665.1 -1222.49,-187.7 -706.9,-1460.2 -706.9,-1460.2"
         style="fill:#73382a;fill-opacity:1;fill-rule:nonzero;stroke:none"
         id="path106" /><path
         d="m 10408.7,15334.7 c 44.6,-126.4 2.2,-258.8 -94.6,-295.7 -96.9,-36.8 -211.5,35.8 -256.1,162.2 -44.5,126.5 -2.2,258.9 94.7,295.7 96.8,36.9 211.4,-35.7 256,-162.2"
         style="fill:#f7a594;fill-opacity:1;fill-rule:nonzero;stroke:none"
         id="path108" /><path
         d="m 11553.5,14723 c -39.8,-7.4 -109.9,-40.5 -179.1,-77.2 -100.6,-53.3 -199.1,-114.1 -199.1,-114.1 0,0 -297.5,179.9 -289.3,468.6 4,-4.4 8.1,-8.7 12.2,-13 231.1,-238.2 655.3,-264.3 655.3,-264.3"
         style="fill:#a65b4a;fill-opacity:1;fill-rule:nonzero;stroke:none"
         id="path110" /><path
         d="m 11553.5,14723 c -39.8,-7.4 -109.9,-40.5 -179.1,-77.2 -301.7,69 -425.7,231.2 -476.2,341.5 231.1,-238.2 655.3,-264.3 655.3,-264.3"
         style="fill:#ffffff;fill-opacity:1;fill-rule:nonzero;stroke:none"
         id="path112" /><path
         d="m 11537.6,14862.9 c -60.4,3.8 -107.6,38.8 -108.3,39.4 -5.4,4.1 -6.5,11.8 -2.4,17.2 4.1,5.4 11.9,6.5 17.3,2.4 4,-3 98.4,-72.8 184,-6.7 47,36.2 34.7,60.5 2,125.4 -31,61.6 -77.9,154.6 -94.2,312.6 -0.7,6.8 4.2,12.8 11,13.5 6.7,0.7 12.8,-4.2 13.5,-10.9 15.8,-153.6 61.5,-244.2 91.7,-304.1 33.8,-66.9 54.1,-107.3 -9,-156 -35.5,-27.5 -72.6,-34.8 -105.6,-32.8"
         style="fill:#a65b4a;fill-opacity:1;fill-rule:nonzero;stroke:none"
         id="path114" /><path
         d="m 11209.6,15469.6 c -2.9,-46.2 -25.9,-82.5 -51.4,-80.9 -25.4,1.6 -43.8,40.3 -41,86.6 2.9,46.3 25.9,82.5 51.4,80.9 25.5,-1.5 43.8,-40.3 41,-86.6"
         style="fill:#1e1e1e;fill-opacity:1;fill-rule:nonzero;stroke:none"
         id="path116" /><path
         d="m 11856.4,15439.3 c -2.6,-42.1 -23.5,-75.1 -46.7,-73.7 -23.3,1.4 -40,36.8 -37.4,78.9 2.6,42.1 23.5,75.1 46.8,73.7 23.2,-1.4 39.9,-36.7 37.3,-78.9"
         style="fill:#1e1e1e;fill-opacity:1;fill-rule:nonzero;stroke:none"
         id="path118" /><path
         d="m 11903.2,15962.4 c 0,0 509.8,49.7 350.5,547.1 -157.9,-160.6 -318.5,-82.1 -318.5,-82.1 0,0 187.2,234.7 -122.4,578.3 -49.4,-214.3 -474.7,-308.6 -718.1,-245.5 -385.6,100 -775.7,-37.9 -817.1,-410 0,0 -252.3,-61.5 -164.4,-562.9 389.5,13.7 561.9,368.9 849.2,420.3 287.3,51.5 531.7,-303.1 940.8,-245.2"
         style="fill:#73382a;fill-opacity:1;fill-rule:nonzero;stroke:none"
         id="path120" /><path
         d="m 11410.9,14349.5 c 0,0 -181.9,-42.7 -281.9,-40.3 -132,3.1 -340.7,76.1 -340.7,76.1 l 346.4,-185.3 276.2,149.5"
         style="fill:#a65b4a;fill-opacity:1;fill-rule:nonzero;stroke:none"
         id="path122" /><path
         d="m 11072.3,13442.1 -49,-176.7 349.8,-2191.8 -184.7,-356.1 -329.4,353.4 54.5,2191.8 -79.4,117 92.8,132.9 145.4,-70.5"
         style="fill:#1951a6;fill-opacity:1;fill-rule:nonzero;stroke:none"
         id="path124" /><path
         d="m 11281.9,14079.3 c -6.7,-260.3 -210,-408.1 -355.7,-556.4 -432.1,112.8 -759.8,377.5 -855.6,622.7 l -203.83,-202.3 c 36.31,-316.5 289.83,-643.7 675.53,-977.3 58.8,169.7 149.1,325.9 406,466.3 l 578.2,-164.6 c 32.7,224.9 58.1,434.5 -73.3,698.8 l -171.3,112.8"
         style="fill:#61b8ff;fill-opacity:1;fill-rule:nonzero;stroke:none"
         id="path126" /><path
         d="m 14484.1,3258.2 c 206.4,0 206.4,335.6 0,335.6 0,0 -821.3,229.2 -845.2,229.2 -23.9,0 -901,-24.5 -901,-24.5 -115.7,-160.7 -77.2,-387.6 -65,-562.1 l 1811.2,21.8"
         style="fill:#73382a;fill-opacity:1;fill-rule:nonzero;stroke:none"
         id="path128" /><path
         d="m 9810.3,3251.7 c -15.19,173.7 -39.86,359 80.07,517 204.43,75.2 591.23,248.9 989.53,24.3 0,0 7.6,-112.4 316.6,-240 76.8,-87.3 107.7,-175.1 72.7,-301.3 H 9810.3"
         style="fill:#73382a;fill-opacity:1;fill-rule:nonzero;stroke:none"
         id="path130" /><path
         d="m 12704.9,3823.1 866.3,4453.1 -2557.3,433.5 0.1,1221 c 0,0 1995.6,-1.4 1967.9,-1.4 -87.7,0 1876.2,135.7 2151.3,-930.4 275.1,-1066.2 -1392.4,-5162.7 -1392.4,-5162.7 -238.2,32.8 -786.8,-132.5 -991.4,-196.7 -174.9,-54.9 -222.9,44.6 -44.5,183.6"
         style="fill:#0d192b;fill-opacity:1;fill-rule:nonzero;stroke:none"
         id="path132" /><path
         d="m 12547.2,9929.3 -1927.5,-1573.7 159,-4553.7 c -508.4,280.5 -1065.55,-254.3 -1108.39,-192.7 0,0 -61.58,29.4 40.73,273.2 -195.04,980.2 -905.79,4654.7 -684.47,5063.3 255.69,472 684.58,1011.3 684.58,1011.3 l 2836.05,-27.7"
         style="fill:#0d192b;fill-opacity:1;fill-rule:nonzero;stroke:none"
         id="path134" /><path
         d="m 9919.42,13994.4 c 29.5,-118 377.98,-3616.9 348.48,-4147.9 -29.5,-531.1 -1323.31,-647.8 -1298.17,-1740.7 26.7,-1160.9 61.79,-1663.7 61.79,-1663.7 -479.5,70.1 -736.79,631.5 -806.97,1017.4 -110.14,670.1 -31.32,1431.9 467.81,2397.5 0,0 133.29,3653.4 299.44,3771.6 296.43,210.9 927.62,365.8 927.62,365.8"
         style="fill:#ffffff;fill-opacity:1;fill-rule:nonzero;stroke:none"
         id="path136" /><path
         d="m 9659.6,12422.9 c 0,0 -165.99,-484.5 -165.99,-685.3 0,-200.8 971.89,-622.8 971.89,-622.8 H 8877.82 v 751.3 l 781.78,556.8"
         style="fill:#d9f1ff;fill-opacity:1;fill-rule:nonzero;stroke:none"
         id="path138" /><path
         d="m 10541.2,10964.4 c 0,0 190.5,172.1 492.5,196.1 302,23.9 566.9,-550.8 566.9,-550.8 h -1045.1 l -14.3,354.7"
         style="fill:#f7b28a;fill-opacity:1;fill-rule:nonzero;stroke:none"
         id="path140" /><path
         d="m 11113.9,11153.3 c 0,0 475.3,-134.4 541.7,-152.1 31,-125.3 -296.1,-71.2 -447.5,-15.5 -166.7,61.4 -94.2,167.6 -94.2,167.6"
         style="fill:#f7b28a;fill-opacity:1;fill-rule:nonzero;stroke:none"
         id="path142" /><path
         d="m 9029.06,13665.1 c -290.27,-180 -1090.21,-2066.2 -1097.84,-2573.9 -3.36,-223.8 90.49,-445.6 515.71,-472.9 234.84,-15.1 2227.87,-32.2 2227.87,-32.2 l -25.3,528.7 -1502.35,428.8 458.91,761.5 c 548.84,282.5 78.82,1710.3 -577,1360"
         style="fill:#ffffff;fill-opacity:1;fill-rule:nonzero;stroke:none"
         id="path144" /><path
         d="m 14188.7,13673.4 c 0,0 -184,450.2 -161.4,572.8 22.6,122.7 475.2,281.2 497.5,226.8 22.4,-54.5 69.4,-188.8 -226.8,-269.6 198.5,-182.9 421.3,-547.4 -109.3,-530"
         style="fill:#f7a594;fill-opacity:1;fill-rule:nonzero;stroke:none"
         id="path146" /><path
         d="m 14164.8,13653 c 0,0 -37.6,406 28.3,569.3 87.6,217.6 346.7,357.6 346.7,357.6 0,0 458.2,-359.6 472.3,-424.6 14,-65.1 -367.7,-463.2 -367.7,-463.2 0,0 -284.4,-270.2 -479.6,-39.1"
         style="fill:#f7a594;fill-opacity:1;fill-rule:nonzero;stroke:none"
         id="path148" /><path
         d="m 14219.1,14185.6 c 0,0 112,1012.9 271.6,983.5 73.6,-13.5 -30,-980.8 -30,-980.8 l -241.6,-2.7"
         style="fill:#f7a594;fill-opacity:1;fill-rule:nonzero;stroke:none"
         id="path150" /><path
         d="m 14137.3,13801.1 c 1,-0.3 2.2,-0.3 3.3,0.1 2.8,1 4.3,4.1 3.3,6.9 -47.2,132.5 -124.5,365.4 -111.2,437.2 17.4,94.6 313.8,218.9 441.6,232.2 38.1,4 44.5,-4 45.5,-6.6 14.8,-35.9 26.8,-78.9 4.1,-125 -28.4,-57.7 -104.9,-103.9 -227.3,-137.3 l -9.5,-2.5 7.2,-6.7 c 82.5,-75.9 181,-195.4 210.2,-302.9 0.8,-2.9 3.9,-4.6 6.7,-3.8 2.9,0.8 4.6,3.7 3.8,6.6 -29,106.7 -124.2,224.3 -206.2,301.5 120.1,34 195.8,81.2 224.8,140.3 28,56.8 5.7,110.9 -3.7,134 -5.2,12.3 -23.6,16.7 -56.7,13.2 -129.6,-13.5 -432.4,-138.8 -451.2,-241.1 -13.7,-74.2 64.1,-309.2 111.7,-442.7 0.6,-1.7 1.9,-3 3.6,-3.4"
         style="fill:#e6836f;fill-opacity:1;fill-rule:nonzero;stroke:none"
         id="path152" /><path
         d="m 14688.1,13993.4 c 1.5,-0.4 3,-0.8 4.6,-1.2 l 3.7,-0.8 2.1,3.2 c 65,102.7 220.2,144.1 221.7,144.5 2.9,0.7 4.7,3.7 3.9,6.6 -0.7,2.9 -3.7,4.6 -6.6,3.9 -6.5,-1.7 -157.6,-42 -226.1,-145.9 -0.1,0.1 -0.3,0.1 -0.4,0.2 -97.4,28 -234.3,258.3 -235.6,260.6 -1.6,2.6 -4.9,3.5 -7.5,1.9 -2.6,-1.5 -3.4,-4.8 -1.9,-7.4 5.8,-9.8 140.5,-236.3 242.1,-265.6"
         style="fill:#e6836f;fill-opacity:1;fill-rule:nonzero;stroke:none"
         id="path154" /><path
         d="m 14182.4,13783.2 -165.8,-632.4 511.4,-164.1 62.6,722.1 -408.2,74.4"
         style="fill:#f7a594;fill-opacity:1;fill-rule:nonzero;stroke:none"
         id="path156" /><path
         d="m 12614.9,13473.4 1045.7,-1050.5 465.2,1208 608.6,-191.7 c 0,0 -7.4,-1765.2 -535.5,-2145.3 -808.7,-494.1 -2194.4,1013.3 -2194.4,1013.3 -542,758 286.2,1605.9 610.4,1166.2"
         style="fill:#ffffff;fill-opacity:1;fill-rule:nonzero;stroke:none"
         id="path158" /><path
         d="m 11459.6,13950.8 c 0,0 279.4,-3837.8 781,-4162.4 501.5,-324.5 2273.9,-103.5 2273.9,-103.5 0,0 -1768.4,633.6 -1797.9,1105.7 -29.5,472 -143.6,2722 -143.6,2722 -164.2,201.6 -685.4,440.4 -1113.4,438.2"
         style="fill:#ffffff;fill-opacity:1;fill-rule:nonzero;stroke:none"
         id="path160" /><g
         id="g162"><g
           id="g164"
           clip-path="url(#clipPath168)"><path
             d="m 11369,12181 c -30.1,-163.1 20,-309.2 112,-326.2 92,-16.9 190.9,101.6 221,264.7 30.2,163.2 -20,309.2 -112,326.2 -91.9,17 -190.9,-101.5 -221,-264.7"
             style="fill:#1b658f;fill-opacity:1;fill-rule:nonzero;stroke:none"
             id="path170" /><path
             d="m 11542.6,12160 c -19.6,-106.3 13.1,-201.4 73,-212.4 59.9,-11.1 124.4,66.1 144,172.4 19.6,106.3 -13,201.4 -73,212.5 -59.9,11 -124.4,-66.2 -144,-172.5"
             style="fill:#2997d6;fill-opacity:1;fill-rule:nonzero;stroke:none"
             id="path172" /><path
             d="m 11606.4,12370.3 c 14,0 25.4,11.1 25.8,25.1 0.2,5.8 14.6,595.5 -72.9,1212.8 -81.1,571.5 -557.1,848.2 -965,863.4 -395.5,14.8 -700.51,-201.4 -776.9,-550.5 -68.74,-314.3 20.27,-850.5 24.09,-873.1 2.36,-14.1 15.61,-23.6 29.72,-21.2 14.04,2.4 23.5,15.7 21.13,29.7 -0.92,5.5 -91.16,549 -24.55,853.5 70.79,323.6 355.51,523.8 724.51,510.1 387.2,-14.5 839,-277 915.9,-819.2 86.9,-612.8 72.6,-1198.3 72.5,-1204.2 -0.4,-14.2 10.8,-26.1 25,-26.4 0.3,0 0.5,0 0.7,0"
             style="fill:#0d192b;fill-opacity:1;fill-rule:nonzero;stroke:none"
             id="path174" /><path
             d="m 9618.99,11572 163.73,21 c 14.12,1.8 24.1,14.7 22.29,28.9 -1.82,14.1 -14.78,24.1 -28.87,22.3 l -123.91,-16 c -168.24,435.5 -177.88,903.3 -22.32,1143.3 76.71,118.3 189.91,181.5 336.46,187.6 137.43,5.9 258.43,-39.6 359.93,-134.8 309.3,-290.1 359.1,-959 366.2,-1102.6 l -93.7,3.6 c -13.9,0.9 -26.2,-10.6 -26.8,-24.8 -0.5,-14.2 10.6,-26.2 24.8,-26.7 l 149,-5.7 -0.6,27.3 c -0.7,33.7 -22,827.3 -383.5,1166.4 -112.1,105.2 -245.8,155.3 -397.5,148.9 -164.21,-7 -291.24,-78 -377.57,-211.2 -86.49,-133.4 -127.32,-325.5 -118.08,-555.7 8.45,-210.5 59.25,-442.5 143.05,-653.2 l 7.39,-18.6"
             style="fill:#0d192b;fill-opacity:1;fill-rule:nonzero;stroke:none"
             id="path176" /><path
             d="m 10067.2,13044.7 -1.4,-127.2 c 0,0 -144.41,57.1 -288.66,-36.2 -36.9,51 -62.91,89.4 -62.91,89.4 0,0 115.35,124.9 352.97,74"
             style="fill:#1b658f;fill-opacity:1;fill-rule:nonzero;stroke:none"
             id="path178" /><path
             d="m 9959.04,12999.9 -27.76,144.7 c -40.33,22 -126.75,-1.3 -139.91,-32.8 l 32,-140.9 135.67,29"
             style="fill:#1b658f;fill-opacity:1;fill-rule:nonzero;stroke:none"
             id="path180" /></g></g><path
         d="m 12029.2,11111.5 c 168.1,17.2 521.3,236.6 605.5,309.2 l 1025.9,-829.5 h -1589.5 l -41.9,520.3"
         style="fill:#2b7eab;fill-opacity:1;fill-rule:nonzero;stroke:none"
         id="path182" /><path
         d="m 13510.6,10588.6 c -43.1,0 -1327.7,783.7 -1327.7,783.7 -282.4,-233.5 -577.8,-347.1 -876.5,-431.1 87.3,-173.3 215.1,-290.2 357.6,-355.2 l 1846.6,2.6"
         style="fill:#69bff0;fill-opacity:1;fill-rule:nonzero;stroke:none"
         id="path184" /><path
         d="M 7121.49,10591.7 H 8706.47 V 10838 H 7121.49 v -246.3"
         style="fill:#bae7ff;fill-opacity:1;fill-rule:nonzero;stroke:none"
         id="path186" /><path
         d="M 5772.11,10591.7 H 7121.49 V 10838 H 5772.11 v -246.3"
         style="fill:#69bff0;fill-opacity:1;fill-rule:nonzero;stroke:none"
         id="path188" /><path
         d="M 8492.28,10757.6 H 7223.23 l 589.01,-117.8 z"
         style="fill:#69bff0;fill-opacity:1;fill-rule:nonzero;stroke:none"
         id="path190" /><path
         d="M 7610.75,10289.4 V 3305.2 h 266.33 v 6984.2 h -266.33"
         style="fill:#1951a6;fill-opacity:1;fill-rule:nonzero;stroke:none"
         id="path192" /><path
         d="m 7610.75,10286.6 v -599.5 h 266.33 v 599.5 h -266.33"
         style="fill:#1951a6;fill-opacity:1;fill-rule:nonzero;stroke:none"
         id="path194" /><path
         d="m 19671.2,3276 h 266.4 v 1212.6 h -266.4 V 3276"
         style="fill:#1951a6;fill-opacity:1;fill-rule:nonzero;stroke:none"
         id="path196" /><path
         d="m 18068.2,3276 h 266.4 v 1212.6 h -266.4 V 3276"
         style="fill:#1951a6;fill-opacity:1;fill-rule:nonzero;stroke:none"
         id="path198" /><path
         d="M 5358.61,10364.1 V 3266.2 l -253.29,40.1 v 7057.8 h 253.29"
         style="fill:#1951a6;fill-opacity:1;fill-rule:nonzero;stroke:none"
         id="path200" /><path
         d="m 14729.2,3276 h 266.3 v 1212.6 h -266.3 V 3276"
         style="fill:#1951a6;fill-opacity:1;fill-rule:nonzero;stroke:none"
         id="path202" /><path
         d="m 16127.6,3276 h 266.3 v 1212.6 h -266.3 V 3276"
         style="fill:#1951a6;fill-opacity:1;fill-rule:nonzero;stroke:none"
         id="path204" /><path
         d="M 4377.03,10590 H 17235.8 v -300 H 4377.03 v 300"
         style="fill:#1951a6;fill-opacity:1;fill-rule:nonzero;stroke:none"
         id="path206" /><path
         d="m 14631.9,4469.4 v 5846.3 h 1645.9 V 4469.4 h -1645.9"
         style="fill:#1951a6;fill-opacity:1;fill-rule:nonzero;stroke:none"
         id="path208" /><path
         d="m 16049.3,4469.4 v 5846.3 h 4048.9 V 4469.4 h -4048.9"
         style="fill:#1951a6;fill-opacity:1;fill-rule:nonzero;stroke:none"
         id="path210" /><path
         d="m 16250.8,4469.4 v 5643.4 h 3737.4 V 4469.4 h -3737.4"
         style="fill:#66a1ff;fill-opacity:1;fill-rule:nonzero;stroke:none"
         id="path212" /><path
         d="M 7245.33,10590 H 20104.1 v -300 H 7245.33 v 300"
         style="fill:#66a1ff;fill-opacity:1;fill-rule:nonzero;stroke:none"
         id="path214" /><path
         d="m 17838.4,10590 h 709.4 l -139.8,1213.1 h -709.5 l 139.9,-1213.1"
         style="fill:#adadad;fill-opacity:1;fill-rule:nonzero;stroke:none"
         id="path216" /><path
         d="m 17632,11803.1 0.5,-4.9 75.6,-655.3 63.7,-552.8 h 709.5 l -130,1127.8 -0.4,3.4 -9.4,81.8 H 17632"
         style="fill:#474747;fill-opacity:1;fill-rule:nonzero;stroke:none"
         id="path218" /><path
         d="m 16807.2,10592.3 h 2253.5 v 124.3 h -2253.5 v -124.3"
         style="fill:#adadad;fill-opacity:1;fill-rule:nonzero;stroke:none"
         id="path220" /><path
         d="m 16649.8,10716.6 h 1803.5 v -124.3 h -1803.5 v 124.3"
         style="fill:#474747;fill-opacity:1;fill-rule:nonzero;stroke:none"
         id="path222" /><path
         d="m 17632.5,11798.2 75.6,-655.3 643.2,575 3.3,2.9 -3.7,0.5 -718.4,76.9"
         style="fill:#2b2b2b;fill-opacity:1;fill-rule:nonzero;stroke:none"
         id="path224" /><path
         d="m 15825.2,11725.1 h 3849.6 c 83.8,0 157.4,68 164.3,151.9 l 219.9,2673.9 c 6.9,83.8 -55.5,151.8 -139.3,151.8 H 16070 c -83.8,0 -157.4,-68 -164.3,-151.8 L 15685.8,11877 c -6.9,-83.9 55.5,-151.9 139.4,-151.9"
         style="fill:#adadad;fill-opacity:1;fill-rule:nonzero;stroke:none"
         id="path226" /><path
         d="m 15753.8,11728.5 h 3849.7 c 83.8,0 157.4,67.9 164.3,151.8 l 219.9,2673.9 c 6.9,83.9 -55.5,151.8 -139.4,151.8 h -3849.6 c -83.8,0 -157.4,-67.9 -164.3,-151.8 l -219.9,-2673.9 c -6.9,-83.9 55.5,-151.8 139.3,-151.8"
         style="fill:#474747;fill-opacity:1;fill-rule:nonzero;stroke:none"
         id="path228" /><path
         d="m 15838.4,11947.2 h 3737.8 l 203.6,2550.3 H 16042 l -203.6,-2550.3"
         style="fill:#d9f3ff;fill-opacity:1;fill-rule:nonzero;stroke:none"
         id="path230" /><path
         d="m 14965,10716.6 v -124.3 h 1178.3 v 124.3 H 14965"
         style="fill:#adadad;fill-opacity:1;fill-rule:nonzero;stroke:none"
         id="path232" /><path
         d="m 13732.4,10640.1 v -47.8 H 14965 v 124.3 l -1232.6,-76.5"
         style="fill:#474747;fill-opacity:1;fill-rule:nonzero;stroke:none"
         id="path234" /><path
         d="m 16499.3,12388.9 2562.9,31 c 107.7,1.3 201.6,92.5 209.7,203.7 l 95.5,1311.6 c 8.1,111.2 -72.7,200.3 -180.4,199 l -2562.9,-31 c -107.7,-1.3 -201.6,-92.5 -209.7,-203.7 l -95.5,-1311.6 c -8.1,-111.2 72.7,-200.3 180.4,-199"
         style="fill:#80b2ff;fill-opacity:1;fill-rule:nonzero;stroke:none"
         id="path236" /><path
         d="m 16721.1,13558.4 752.6,9.1 c 23.7,0.3 44.4,20.4 46.2,44.8 v 0 c 1.8,24.5 -16,44.1 -39.7,43.8 l -752.7,-9.1 c -23.7,-0.3 -44.3,-20.3 -46.1,-44.8 v 0 c -1.8,-24.5 16,-44.1 39.7,-43.8"
         style="fill:#d9f3ff;fill-opacity:1;fill-rule:nonzero;stroke:none"
         id="path238" /><path
         d="m 16703.4,13316.3 1002.8,12.1 c 23.8,0.3 44.4,20.4 46.2,44.8 v 0 c 1.8,24.5 -16,44.1 -39.7,43.8 l -1002.8,-12.1 c -23.7,-0.3 -44.4,-20.3 -46.2,-44.8 v 0 c -1.7,-24.5 16,-44.1 39.7,-43.8"
         style="fill:#d9f3ff;fill-opacity:1;fill-rule:nonzero;stroke:none"
         id="path240" /><path
         d="m 16682.7,13031.1 1002.8,12.1 c 23.7,0.3 44.4,20.4 46.1,44.9 v 0 c 1.8,24.5 -16,44.1 -39.7,43.8 l -1002.8,-12.1 c -23.7,-0.3 -44.3,-20.4 -46.1,-44.9 v 0 c -1.8,-24.5 16,-44.1 39.7,-43.8"
         style="fill:#d9f3ff;fill-opacity:1;fill-rule:nonzero;stroke:none"
         id="path242" /><path
         d="m 16661.9,12746 1002.8,12.1 c 23.7,0.3 44.4,20.4 46.2,44.8 v 0 c 1.8,24.5 -16,44.1 -39.7,43.8 l -1002.8,-12.1 c -23.7,-0.3 -44.4,-20.4 -46.2,-44.8 v 0 c -1.8,-24.5 16,-44.1 39.7,-43.8"
         style="fill:#d9f3ff;fill-opacity:1;fill-rule:nonzero;stroke:none"
         id="path244" /><path
         d="m 18619.2,13540.5 c -77.8,-67 -132.5,-551.2 -31.5,-687.1 46.3,-62.3 126.1,-62.9 195.5,-80.4 82,-20.8 148,-112.5 182.1,-68.9 63,80.4 78.2,403.5 -26.4,612.4 -36.5,72.8 -241.8,291 -319.7,224"
         style="fill:#d9f3ff;fill-opacity:1;fill-rule:nonzero;stroke:none"
         id="path246" /><path
         d="m 18295,13540.5 c 77.9,-67 132.5,-551.2 31.5,-687.1 -46.3,-62.3 -126.1,-62.9 -195.4,-80.4 -82.1,-20.8 -148.1,-112.5 -182.2,-68.9 -63,80.4 -78.2,403.5 26.5,612.4 36.4,72.8 241.8,291 319.6,224"
         style="fill:#d9f3ff;fill-opacity:1;fill-rule:nonzero;stroke:none"
         id="path248" /><path
         d="m 18415,13355.1 v 512.7 h 72.7 v -505.2 h 0.1 c 0,-4.2 2.2,-103.1 102.3,-125.1 l -12.1,-54.9 c -66.5,14.6 -104.9,55 -125.6,96.4 -20.1,-42.7 -58.8,-85.1 -127.5,-100.3 l -12.1,54.9 c 90.6,20 101,102.6 102.2,121.5"
         style="fill:#d9f3ff;fill-opacity:1;fill-rule:nonzero;stroke:none"
         id="path250" /><path
         d="m 20250.5,3650.2 h 267.9 v 498.6 h -267.9 v -498.6"
         style="fill:#0d192b;fill-opacity:1;fill-rule:nonzero;stroke:none"
         id="path252" /><path
         d="m 22259.5,3650.2 h 267.9 v 498.6 h -267.9 v -498.6"
         style="fill:#0d192b;fill-opacity:1;fill-rule:nonzero;stroke:none"
         id="path254" /><path
         d="m 24504.9,3650.2 h 267.9 v 498.6 h -267.9 v -498.6"
         style="fill:#0d192b;fill-opacity:1;fill-rule:nonzero;stroke:none"
         id="path256" /><path
         d="m 24368.1,3651.8 c 0,-178.4 91.4,-323.1 204.3,-323.1 112.8,0 204.3,144.7 204.3,323.1 0,178.4 -91.5,323 -204.3,323 -112.9,0 -204.3,-144.6 -204.3,-323"
         style="fill:#0d192b;fill-opacity:1;fill-rule:nonzero;stroke:none"
         id="path258" /><path
         d="m 24170.1,3651.8 c 0,-178.4 91.5,-323.1 204.3,-323.1 112.8,0 204.3,144.7 204.3,323.1 0,178.4 -91.5,323 -204.3,323 -112.8,0 -204.3,-144.6 -204.3,-323"
         style="fill:#0d192b;fill-opacity:1;fill-rule:nonzero;stroke:none"
         id="path260" /><path
         d="m 24295.6,3354.9 c 85,-66.4 322.6,-36.3 355.8,-2 l 1.5,595.9 c -63.8,55.8 -288.7,53.9 -357.2,3.1 l -0.1,-597"
         style="fill:#0d192b;fill-opacity:1;fill-rule:nonzero;stroke:none"
         id="path262" /><path
         d="m 24215.1,3660.5 c 0,-122.2 62.7,-221.3 140,-221.3 77.3,0 140,99.1 140,221.3 0,122.3 -62.7,221.4 -140,221.4 -77.3,0 -140,-99.1 -140,-221.4"
         style="fill:#1e62cc;fill-opacity:1;fill-rule:nonzero;stroke:none"
         id="path264" /><path
         d="m 24284.6,3654.2 c 0,-74.5 38.2,-134.9 85.3,-134.9 47.1,0 85.3,60.4 85.3,134.9 0,74.5 -38.2,134.9 -85.3,134.9 -47.1,0 -85.3,-60.4 -85.3,-134.9"
         style="fill:#0d192b;fill-opacity:1;fill-rule:nonzero;stroke:none"
         id="path266" /><path
         d="m 22638.1,3651.8 c 0,-178.4 -91.5,-323.1 -204.3,-323.1 -112.8,0 -204.3,144.7 -204.3,323.1 0,178.4 91.5,323 204.3,323 112.8,0 204.3,-144.6 204.3,-323"
         style="fill:#0d192b;fill-opacity:1;fill-rule:nonzero;stroke:none"
         id="path268" /><path
         d="m 22836.1,3651.8 c 0,-178.4 -91.5,-323.1 -204.3,-323.1 -112.8,0 -204.3,144.7 -204.3,323.1 0,178.4 91.5,323 204.3,323 112.8,0 204.3,-144.6 204.3,-323"
         style="fill:#0d192b;fill-opacity:1;fill-rule:nonzero;stroke:none"
         id="path270" /><path
         d="m 22710.6,3354.9 c -85,-66.4 -322.6,-36.3 -355.8,-2 l -1.5,595.9 c 63.7,55.8 288.7,53.9 357.2,3.1 l 0.1,-597"
         style="fill:#0d192b;fill-opacity:1;fill-rule:nonzero;stroke:none"
         id="path272" /><path
         d="m 22791.1,3660.5 c 0,-122.2 -62.7,-221.3 -140,-221.3 -77.4,0 -140,99.1 -140,221.3 0,122.3 62.6,221.4 140,221.4 77.3,0 140,-99.1 140,-221.4"
         style="fill:#1e62cc;fill-opacity:1;fill-rule:nonzero;stroke:none"
         id="path274" /><path
         d="m 22721.6,3654.2 c 0,-74.5 -38.2,-134.9 -85.4,-134.9 -47.1,0 -85.3,60.4 -85.3,134.9 0,74.5 38.2,134.9 85.3,134.9 47.2,0 85.4,-60.4 85.4,-134.9"
         style="fill:#0d192b;fill-opacity:1;fill-rule:nonzero;stroke:none"
         id="path276" /><path
         d="m 20597.6,3651.8 c 0,-178.4 -91.5,-323.1 -204.3,-323.1 -112.8,0 -204.3,144.7 -204.3,323.1 0,178.4 91.5,323 204.3,323 112.8,0 204.3,-144.6 204.3,-323"
         style="fill:#0d192b;fill-opacity:1;fill-rule:nonzero;stroke:none"
         id="path278" /><path
         d="m 20795.6,3651.8 c 0,-178.4 -91.5,-323.1 -204.3,-323.1 -112.9,0 -204.3,144.7 -204.3,323.1 0,178.4 91.4,323 204.3,323 112.8,0 204.3,-144.6 204.3,-323"
         style="fill:#0d192b;fill-opacity:1;fill-rule:nonzero;stroke:none"
         id="path280" /><path
         d="m 20670,3354.9 c -84.9,-66.4 -322.5,-36.3 -355.7,-2 l -1.5,595.9 c 63.7,55.8 288.6,53.9 357.1,3.1 l 0.1,-597"
         style="fill:#0d192b;fill-opacity:1;fill-rule:nonzero;stroke:none"
         id="path282" /><path
         d="m 20750.5,3660.5 c 0,-122.2 -62.6,-221.3 -140,-221.3 -77.3,0 -139.9,99.1 -139.9,221.3 0,122.3 62.6,221.4 139.9,221.4 77.4,0 140,-99.1 140,-221.4"
         style="fill:#1e62cc;fill-opacity:1;fill-rule:nonzero;stroke:none"
         id="path284" /><path
         d="m 20681,3654.2 c 0,-74.5 -38.2,-134.9 -85.3,-134.9 -47.1,0 -85.3,60.4 -85.3,134.9 0,74.5 38.2,134.9 85.3,134.9 47.1,0 85.3,-60.4 85.3,-134.9"
         style="fill:#0d192b;fill-opacity:1;fill-rule:nonzero;stroke:none"
         id="path286" /><path
         d="m 22158.9,4234.8 h 390.2 v 4064 h -390.2 v -4064"
         style="fill:#0d192b;fill-opacity:1;fill-rule:nonzero;stroke:none"
         id="path288" /><path
         d="m 20064.7,4099.7 c -0.6,3.3 -3.1,6.6 -3.1,10 0,215.1 1063.7,389.5 2375.8,389.5 1312.2,0 2375.9,-174.4 2375.9,-389.5 0,-3.4 -2.6,-6.7 -3.1,-10 h -4745.5"
         style="fill:#1a56b3;fill-opacity:1;fill-rule:nonzero;stroke:none"
         id="path290" /><path
         d="m 22678.1,7092.4 h -634.3 V 7866 h 634.3 v -773.6"
         style="fill:#1a56b3;fill-opacity:1;fill-rule:nonzero;stroke:none"
         id="path292" /><path
         d="m 22678.1,4369.6 h -634.3 v 773.6 h 634.3 v -773.6"
         style="fill:#1a56b3;fill-opacity:1;fill-rule:nonzero;stroke:none"
         id="path294" /><path
         d="m 23545.8,14368.1 v -0.8 c 8.4,0.8 16.8,0.8 25.2,0.8 h -25.2"
         style="fill:#4a82db;fill-opacity:1;fill-rule:nonzero;stroke:none"
         id="path296" /><path
         d="m 25181.8,9205.7 -21.8,-29.3 15.5,67.4 h 34.4 z m 1060.9,5173.7 c 0,0 -0.5,0 -1.7,0.4 -5.5,0.4 -21,0.9 -45.7,1.3 -26.8,0.4 -62.5,0.8 -105.2,0.8 -563.8,2.5 -2402.8,-13.8 -2402.8,-13.8 -8.4,0 -17.2,0 -26,-0.9 -292.2,-13 -577.7,-243.5 -645.6,-525.6 0,0 -800.9,-3969.4 -1156.3,-4311 -355.1,-341.2 -1573.3,-308.1 -1573.3,-308.1 -268.7,0 -506.8,-158.5 -582.7,-390.3 -16.7,-50.3 -25.5,-104 -25.5,-160.1 0,-158.1 66.6,-301 173.9,-404.5 106.9,-103.6 254.5,-167.7 418.4,-167.7 H 22979 l 1758.4,-35.7 c 400.4,-10.9 753.3,258.3 850.6,645.6 9.2,23.9 16.3,48.2 22.2,72.9 l 930.9,5081.9 c 9.7,41.1 14.3,80.9 14.3,119.5 0,198.3 -122.4,353.4 -312.7,395.3"
         style="fill:#9eddff;fill-opacity:1;fill-rule:nonzero;stroke:none"
         id="path298" /><path
         d="m 25080.6,8098 c 0.5,-2.5 2.9,-4.9 2.9,-7.5 0,-161.7 -1398,-292.7 -2649.1,-292.7 -1251,0 -2265.2,131 -2265.2,292.7 0,2.6 2.4,5 2.9,7.5 h 4908.5"
         style="fill:#1a56b3;fill-opacity:1;fill-rule:nonzero;stroke:none"
         id="path300" /><path
         d="m 26555.4,13984.1 c 0,-38.6 -4.6,-78.4 -14.3,-119.5 C 26506,13763 25636.7,8804.3 25588,8710 c -97.3,-387.5 -450.2,-656.7 -850.6,-645.8 -1041,33.7 -3405.9,42 -4467.2,35.7 -378.3,-7.8 -686.6,368.7 -566.8,732.3 -130.6,-616.5 4949.5,-692 5481.5,115.9 378.5,283.2 169.3,5664 1057.7,5431.3 190.4,-41.9 312.8,-197 312.8,-395.3"
         style="fill:#61b8ff;fill-opacity:1;fill-rule:nonzero;stroke:none"
         id="path302" /><path
         d="m 23786.9,14470.6 c 498.2,-3508.4 -2830.5,-3001.1 -2734.2,-1589 83,1216.6 819.2,1358.9 627.4,2156.7 -210.6,875.6 101.1,1641.6 931.1,1641.6 812.9,0 1299.4,-592.2 1125.8,-1622.3 -34.4,-204.3 28.7,-417.7 49.9,-587"
         style="fill:#0e0e0e;fill-opacity:1;fill-rule:nonzero;stroke:none"
         id="path304" /><path
         d="m 20667.3,4648.6 c 6.1,-34.8 121.2,-707.4 121.2,-707.4 l 462.6,39.7 67.1,824.2 -650.9,-156.5"
         style="fill:#ffa599;fill-opacity:1;fill-rule:nonzero;stroke:none"
         id="path306" /><path
         d="m 23611.1,10233.5 c 0,0 387.1,-1087.7 -252.8,-1274.1 C 22718.5,8773 21648,8702.3 21648,8702.3 l -345.7,-4302.8 c -128.2,-51 -265.5,-96.4 -585.2,-31.2 0,0 -787.6,4331.4 -560.4,4850.6 227.1,519.3 2004.2,1047.3 2004.2,1047.3 l 1450.2,-32.7"
         style="fill:#0d192b;fill-opacity:1;fill-rule:nonzero;stroke:none"
         id="path308" /><path
         d="m 21390.8,3868.5 c -34.4,-88.4 -301,-214 -599.4,-305.6 -203.9,-62.7 -422.7,-109.4 -592.3,-117.5 -105.9,-5.1 -192.6,4.8 -244.5,35.4 0,0 -131.7,340.6 160.9,528.3 292.5,187.8 622.7,225.3 622.7,225.3 42.2,-60.3 110.7,-99.9 195.3,-109.8 56.6,-6.6 120.5,0.1 188.6,22.8 54.7,18.2 112.1,46.7 170.6,87 0,0 26.7,-28.1 54.2,-74.1 2.8,-4.5 5.5,-9.1 8.2,-13.9 38.3,-69 73.6,-170.8 35.7,-277.9"
         style="fill:#ffffff;fill-opacity:1;fill-rule:nonzero;stroke:none"
         id="path310" /><path
         d="m 21368.9,4160.7 -13.8,-14.3 -563.7,-583.5 c -203.9,-62.7 -422.7,-109.4 -592.3,-117.5 -11.6,107.3 -6.8,334.7 200.3,495.8 127.6,99.2 340.3,153.6 534.1,183.4 66.5,10.2 130.8,17.6 188.6,22.8 104,9.4 187.1,12.2 224.8,12.9 14.2,0.4 22,0.4 22,0.4"
         style="fill:#dbf2ff;fill-opacity:1;fill-rule:nonzero;stroke:none"
         id="path312" /><path
         d="m 21101.3,4542.5 c 6.1,-34.8 55.6,-707 55.6,-707 l 397.2,5.1 113.8,715.8 -566.6,-13.9"
         style="fill:#ffa599;fill-opacity:1;fill-rule:nonzero;stroke:none"
         id="path314" /><path
         d="m 21631.7,4273.1 c 0,0 139.3,-269.8 170.2,-338.3 -155.4,-454 -1217.8,-807.3 -1327.6,-671.1 0,0 -198.1,306.8 50.3,550 248.3,243.2 607.3,355.8 607.3,355.8 118.3,-111.4 427.6,-81 499.8,103.6"
         style="fill:#ffffff;fill-opacity:1;fill-rule:nonzero;stroke:none"
         id="path316" /><path
         d="m 24664.4,10079.7 c 0,0 209.5,-947.6 -588.4,-1204.5 -634.4,-204.2 -1724.8,-620.8 -1724.8,-620.8 l -692.3,-3856 c -29.1,-82 -490.3,-112.5 -548.9,-46.6 0,0 -160.7,4244.7 158.3,4713.2 489.8,719.3 1153.8,1158.9 1153.8,1158.9 671.9,77.1 1651.7,149.1 2242.3,-144.2"
         style="fill:#0d192b;fill-opacity:1;fill-rule:nonzero;stroke:none"
         id="path318" /><path
         d="m 21094.3,4351.1 c -7.5,170.7 -181.2,4186.6 160.7,4722.4 88.9,139.2 195.9,279.6 318,417.2 l 23.5,-20.9 c -121,-136.4 -227,-275.4 -314.9,-413.2 -336.7,-527.5 -157.7,-4662.4 -155.8,-4704.1 l -31.5,-1.4"
         style="fill:#2a518c;fill-opacity:1;fill-rule:nonzero;stroke:none"
         id="path320" /><path
         d="m 22052.6,13602.5 c 328.1,402.5 572.6,163 558,-289.3 -14.5,-452.3 -320.1,-2423.1 -686.1,-2287.6 -365.9,135.4 -283.7,2071.7 128.1,2576.9"
         style="fill:#ffa599;fill-opacity:1;fill-rule:nonzero;stroke:none"
         id="path322" /><path
         d="m 22296.6,11853.5 -220,-1535.2 c 21.5,-78.9 140.5,-145.7 318.7,-198.2 28.2,-8.4 57.8,-16.3 88.7,-23.9 0,0 0.1,-0.1 0.1,0 607.3,-148.9 1724.5,-157.8 2209.8,35.7 0,0 -37.7,259.9 -192.4,677 -117.6,316.9 -302.8,724.6 -590.4,1178 -18.3,134.6 95.3,372 208.9,644.2 180.9,433.5 361.9,955.3 10.8,1290.5 -571.5,546 -2066.8,391.1 -2165,-689 -15,-698.7 330.8,-1379.1 330.8,-1379.1"
         style="fill:#fd5655;fill-opacity:1;fill-rule:nonzero;stroke:none"
         id="path324" /><path
         d="m 22315.5,10012.8 c 10.3,1.7 71.7,33.5 168.5,83.4 0,0 0.1,-0.1 0.1,0 413.8,213 1474.5,757.6 1967.9,713.5 17.5,-1.5 34,-1.8 49.5,-0.8 -117.6,316.9 -302.8,724.6 -590.4,1178 -18.3,134.6 95.3,372 208.9,644.2 l -645.8,733.1 c 0,0 2.3,-16.7 6.3,-46.8 34.5,-264.2 198.5,-1564.6 110,-1774.5 -81.1,-192.1 -926.3,-1107.2 -1195.2,-1422.8 -58.4,-68.7 -89.6,-108.9 -79.8,-107.3"
         style="fill:#e64847;fill-opacity:1;fill-rule:nonzero;stroke:none"
         id="path326" /><path
         d="m 22473.8,13831.7 c 18.9,-129.9 186.2,-475.4 186.2,-475.4 0,0 692.7,430.3 668,599.8 l -112.4,454.4 -73.3,295.5 -705.7,-102.7 24.3,-504.8 12.9,-266.8"
         style="fill:#ffa599;fill-opacity:1;fill-rule:nonzero;stroke:none"
         id="path328" /><path
         d="m 22460.9,14098.5 493.1,330 -517.4,174.8 z"
         style="fill:#e87c5d;fill-opacity:1;fill-rule:nonzero;stroke:none"
         id="path330" /><path
         d="m 21815.4,15525 c -39.9,-632.1 317.9,-1153.4 799.1,-1164.4 481.2,-11.1 862.5,493.3 851.6,1126.6 -10.2,596.6 -368.7,1063.4 -801.2,1073.3 -432.5,9.9 -812,-440 -849.5,-1035.5"
         style="fill:#ffa599;fill-opacity:1;fill-rule:nonzero;stroke:none"
         id="path332" /><path
         d="m 22406.3,15969 c 600.9,-770.3 1466.5,-464.1 1267,-3.4 0,0 -231.9,634.6 -933.1,645 -876.8,12.8 -333.9,-641.6 -333.9,-641.6"
         style="fill:#0e0e0e;fill-opacity:1;fill-rule:nonzero;stroke:none"
         id="path334" /><path
         d="m 22574.5,15062.6 c -22.4,0.5 -44.2,5.8 -56.6,21.4 -30.4,38.3 51.5,225.6 68.2,262.7 2.1,4.7 7.6,6.7 12.3,4.7 4.6,-2.1 6.7,-7.6 4.6,-12.3 -39.7,-88.1 -87.8,-221.9 -70.6,-243.6 20.1,-25.3 89.4,-11.1 114.4,-3.4 4.8,1.5 10,-1.2 11.5,-6.1 1.5,-4.9 -1.2,-10.1 -6.1,-11.6 -6.4,-1.9 -42.9,-12.6 -77.7,-11.8"
         style="fill:#bd4a31;fill-opacity:1;fill-rule:nonzero;stroke:none"
         id="path336" /><path
         d="m 22444.5,14845.3 c 0,0 268.2,-81.9 622.2,101.2 -194.7,-280.7 -449.4,-455.9 -622.2,-101.2"
         style="fill:#bd4a31;fill-opacity:1;fill-rule:nonzero;stroke:none"
         id="path338" /><path
         d="m 23013.4,15411 c -1.1,-46.6 -20.6,-83.9 -43.7,-83.4 -23.1,0.6 -40.9,38.8 -39.9,85.3 1.1,46.6 20.7,83.9 43.8,83.4 23,-0.5 40.9,-38.7 39.8,-85.3"
         style="fill:#0e0e0e;fill-opacity:1;fill-rule:nonzero;stroke:none"
         id="path340" /><path
         d="m 22208.3,15447.9 c -1,-46.6 -20.6,-83.9 -43.7,-83.4 -23.1,0.5 -40.9,38.7 -39.8,85.3 1,46.5 20.6,83.9 43.7,83.3 23.1,-0.5 40.9,-38.7 39.8,-85.2"
         style="fill:#0e0e0e;fill-opacity:1;fill-rule:nonzero;stroke:none"
         id="path342" /><path
         d="m 22402.4,16114.6 c 0,0 -106.7,-586 -602.7,-624.8 -331.8,-26 150.9,970.2 466.7,950.8 186.3,-11.4 136,-326 136,-326"
         style="fill:#0e0e0e;fill-opacity:1;fill-rule:nonzero;stroke:none"
         id="path344" /><path
         d="m 24244,13690.2 c 0,0 -257.9,280.5 -673,-31.5 -339.8,-255.4 234.5,-1883.2 234.5,-1883.2 l -1694,-1608.2 129.8,-163.6 c 0,0 2027.3,850 2285.4,1521.8 88.5,425.3 -83.5,1867.8 -282.7,2164.7"
         style="fill:#ffa599;fill-opacity:1;fill-rule:nonzero;stroke:none"
         id="path346" /><path
         d="m 22278.1,11611.9 92,-1589.9 -218.7,-36.6 c 0,0 -473.1,1091.2 -451.6,1707.5 18.8,540.1 644,411 578.3,-81"
         style="fill:#ffa599;fill-opacity:1;fill-rule:nonzero;stroke:none"
         id="path348" /><path
         d="m 22392.1,10120.9 c 0,0 239.8,-143.5 124.4,-240.7 -115.4,-97.2 -531.2,-91.5 -412.4,167.3 118.8,258.8 288,73.4 288,73.4"
         style="fill:#ffa599;fill-opacity:1;fill-rule:nonzero;stroke:none"
         id="path350" /><path
         d="m 22110.3,10194.3 c -18.7,3.7 -435.3,-291.9 -309.8,-420.2 125.6,-128.3 753.6,256.6 629.4,413.4 -124.2,156.9 -319.6,6.8 -319.6,6.8"
         style="fill:#ffa599;fill-opacity:1;fill-rule:nonzero;stroke:none"
         id="path352" /></g></g></svg>
