<?xml version="1.0" encoding="UTF-8" standalone="no"?>
<svg
   xmlns:dc="http://purl.org/dc/elements/1.1/"
   xmlns:cc="http://creativecommons.org/ns#"
   xmlns:rdf="http://www.w3.org/1999/02/22-rdf-syntax-ns#"
   xmlns:svg="http://www.w3.org/2000/svg"
   xmlns="http://www.w3.org/2000/svg"
   xmlns:sodipodi="http://sodipodi.sourceforge.net/DTD/sodipodi-0.dtd"
   xmlns:inkscape="http://www.inkscape.org/namespaces/inkscape"
   version="1.1"
   id="svg2"
   xml:space="preserve"
   width="1000"
   height="666.66669"
   viewBox="0 0 1000 666.66669"
   sodipodi:docname="3641636.eps"><metadata
     id="metadata8"><rdf:RDF><cc:Work
         rdf:about=""><dc:format>image/svg+xml</dc:format><dc:type
           rdf:resource="http://purl.org/dc/dcmitype/StillImage" /></cc:Work></rdf:RDF></metadata><defs
     id="defs6" /><sodipodi:namedview
     pagecolor="#ffffff"
     bordercolor="#666666"
     borderopacity="1"
     objecttolerance="10"
     gridtolerance="10"
     guidetolerance="10"
     inkscape:pageopacity="0"
     inkscape:pageshadow="2"
     inkscape:window-width="640"
     inkscape:window-height="480"
     id="namedview4" /><g
     id="g10"
     inkscape:groupmode="layer"
     inkscape:label="ink_ext_XXXXXX"
     transform="matrix(1.3333333,0,0,-1.3333333,0,666.66667)"><g
       id="g12"
       transform="scale(0.1)"><path
         d="M 7500,0 H 0 V 5000 H 7500 V 0"
         style="fill:#d6eae8;fill-opacity:1;fill-rule:nonzero;stroke:none"
         id="path14" /><path
         d="m 4471.37,651.121 h -181.26 l -299.76,-160.351 515.42,6.14 -34.4,154.211"
         style="fill:#1f0004;fill-opacity:1;fill-rule:nonzero;stroke:none"
         id="path16" /><path
         d="m 4379.36,459.93 c 17.02,0 30.79,-14.239 31.14,-31.899 l 97.06,1.051 -1.79,67.828 -515.42,-6.14 1.8,-67.829 356,4.329 v 0.101 c 0,17.981 13.98,32.559 31.21,32.559"
         style="fill:#200803;fill-opacity:1;fill-rule:nonzero;stroke:none"
         id="path18" /><path
         d="m 4164.83,592.07 59.39,-16.23"
         style="fill:none;stroke:#ffffff;stroke-width:10.6487;stroke-linecap:butt;stroke-linejoin:miter;stroke-miterlimit:10;stroke-dasharray:none;stroke-opacity:1"
         id="path20" /><path
         d="m 4222.88,621.859 59.39,-16.238"
         style="fill:none;stroke:#ffffff;stroke-width:10.6487;stroke-linecap:butt;stroke-linejoin:miter;stroke-miterlimit:10;stroke-dasharray:none;stroke-opacity:1"
         id="path22" /><path
         d="m 4286.62,906.672 h 184.75 V 651.121 h -184.75 v 255.551"
         style="fill:#ffffff;fill-opacity:1;fill-rule:nonzero;stroke:none"
         id="path24" /><path
         d="m 4719.28,651.121 h 181.26 l 299.75,-160.351 -515.42,6.14 34.41,154.211"
         style="fill:#1f0004;fill-opacity:1;fill-rule:nonzero;stroke:none"
         id="path26" /><path
         d="m 4811.29,459.93 c -17.01,0 -30.79,-14.239 -31.13,-31.899 l -97.07,1.051 1.78,67.828 515.42,-6.14 -1.79,-67.829 -356.01,4.329 v 0.101 c 0,17.981 -13.96,32.559 -31.2,32.559"
         style="fill:#200803;fill-opacity:1;fill-rule:nonzero;stroke:none"
         id="path28" /><path
         d="m 5025.81,592.07 -59.38,-16.23"
         style="fill:none;stroke:#ffffff;stroke-width:10.6487;stroke-linecap:butt;stroke-linejoin:miter;stroke-miterlimit:10;stroke-dasharray:none;stroke-opacity:1"
         id="path30" /><path
         d="m 4967.76,621.859 -59.38,-16.238"
         style="fill:none;stroke:#ffffff;stroke-width:10.6487;stroke-linecap:butt;stroke-linejoin:miter;stroke-miterlimit:10;stroke-dasharray:none;stroke-opacity:1"
         id="path32" /><path
         d="m 4891.37,906.672 h -184.76 l 12.67,-255.551 h 184.75 l -12.66,255.551"
         style="fill:#ffffff;fill-opacity:1;fill-rule:nonzero;stroke:none"
         id="path34" /><path
         d="m 4830.36,2744.27 c 12.01,-128.23 97.47,-1994.918 97.47,-1994.918 h -249.55 l -109.36,1676.988 -44.96,-0.85 -29.09,-1676.138 h -249.08 c 0,0 -13.6,1744.208 0.94,1990.918 l 583.63,4"
         style="fill:#2862b7;fill-opacity:1;fill-rule:nonzero;stroke:none"
         id="path36" /><path
         d="M 4460.95,2425.22 H 4613.7"
         style="fill:none;stroke:#1f0004;stroke-width:4.90311;stroke-linecap:round;stroke-linejoin:round;stroke-miterlimit:10;stroke-dasharray:none;stroke-opacity:1"
         id="path38" /><path
         d="m 4420.43,4192.45 c 0.89,-35.91 -27.5,-65.74 -63.41,-66.62 -35.91,-0.89 -65.74,27.5 -66.62,63.41 -0.89,35.9 27.5,65.74 63.41,66.62 35.91,0.89 65.73,-27.5 66.62,-63.41"
         style="fill:#f5b087;fill-opacity:1;fill-rule:nonzero;stroke:none"
         id="path40" /><path
         d="m 4318.53,4200.12 c 0,0 25.89,12.5 50.39,-32.51"
         style="fill:none;stroke:#1f0004;stroke-width:4.90311;stroke-linecap:round;stroke-linejoin:round;stroke-miterlimit:10;stroke-dasharray:none;stroke-opacity:1"
         id="path42" /><path
         d="m 4657.88,4189.77 c -0.13,-35.92 28.89,-65.14 64.81,-65.26 35.91,-0.13 65.13,28.88 65.26,64.8 0.13,35.92 -28.89,65.14 -64.81,65.27 -35.91,0.13 -65.13,-28.89 -65.26,-64.81"
         style="fill:#f5b087;fill-opacity:1;fill-rule:nonzero;stroke:none"
         id="path44" /><path
         d="m 4759.6,4199.59 c 0,0 -26.16,11.96 -49.69,-33.57"
         style="fill:none;stroke:#1f0004;stroke-width:4.90311;stroke-linecap:round;stroke-linejoin:round;stroke-miterlimit:10;stroke-dasharray:none;stroke-opacity:1"
         id="path46" /><path
         d="m 4427.75,4485.78 c 0,0 -54.58,21.61 -98.94,-47.87 -65.94,-103.26 57.02,-267.36 57.02,-267.36 l 41.92,315.23"
         style="fill:#200803;fill-opacity:1;fill-rule:nonzero;stroke:none"
         id="path48" /><path
         d="m 4648.86,4485.78 c 0,0 54.58,21.61 98.94,-47.87 65.93,-103.26 -57.03,-267.36 -57.03,-267.36 l -41.91,315.23"
         style="fill:#200803;fill-opacity:1;fill-rule:nonzero;stroke:none"
         id="path50" /><path
         d="m 4741.46,4309.92 c 0,-113.49 -92.01,-205.5 -205.49,-205.5 -113.5,0 -205.51,92.01 -205.51,205.5 0,113.49 92.01,205.49 205.51,205.49 113.48,0 205.49,-92 205.49,-205.49"
         style="fill:#200803;fill-opacity:1;fill-rule:nonzero;stroke:none"
         id="path52" /><path
         d="m 4612.97,4050.09 c 0,0 -27.67,-35.8 -61.1,-42.07 -33.43,-6.26 -65.85,13.25 -66.26,13.48 -0.41,0.24 -30.86,35.51 -30.86,35.51 l -16,-226.8 194.99,1.14 -20.77,218.74"
         style="fill:#f5b087;fill-opacity:1;fill-rule:nonzero;stroke:none"
         id="path54" /><path
         d="m 4464.41,4014.66 159.15,-89.08 -10.59,124.51 z"
         style="fill:#e09069;fill-opacity:1;fill-rule:nonzero;stroke:none"
         id="path56" /><path
         d="m 4715.18,4302.79 c 0.11,-73.51 -10.3,-136.97 -20.71,-182.01 -10.2,-44.1 -39.03,-74.95 -79.81,-99.81 l -7.42,-4.53 c -43.15,-26.3 -98.94,-27 -142.83,-1.78 v 0 c -44.25,25.43 -75.27,59.01 -84.87,106.3 -17.46,86.01 -18.74,161.54 -18.74,161.54 0,0 -25.05,215.35 166.51,215.38 207.45,0.03 187.87,-195.09 187.87,-195.09"
         style="fill:#f5b087;fill-opacity:1;fill-rule:nonzero;stroke:none"
         id="path58" /><path
         d="m 4712.09,4215.58 c 0,0 -24.2,-101.18 -74.67,-91.09 -26.84,5.37 -41.78,12.97 -56.16,18.44 v 0 c -45.65,20.54 -89.29,0.9 -89.29,0.9 v -0.01 c -15.14,-5.5 -30.22,-13.66 -58.55,-19.33 -50.47,-10.09 -67.9,82.27 -67.9,82.27 0,0 -10.97,-55.97 19.9,-124.46 19.41,-43.06 47.56,-64.57 74.5,-74.91 v -0.01 c 0.88,-0.36 1.76,-0.67 2.65,-1 0.06,-0.03 0.12,-0.05 0.17,-0.07 73.6,-28.09 138.37,-3.75 138.37,-3.75 v 0.01 c 31.14,7.62 66.71,28.38 89.87,79.73 30.87,68.49 21.11,133.28 21.11,133.28"
         style="fill:#291c1c;fill-opacity:1;fill-rule:nonzero;stroke:none"
         id="path60" /><path
         d="m 4470.24,4239.02 c -0.03,-8.56 -6.99,-15.47 -15.55,-15.44 -8.57,0.03 -15.48,6.99 -15.45,15.56 0.04,8.56 7,15.47 15.55,15.44 8.57,-0.03 15.48,-7 15.45,-15.56"
         style="fill:#1f0004;fill-opacity:1;fill-rule:nonzero;stroke:none"
         id="path62" /><path
         d="m 4622.32,4238.48 c -0.03,-8.56 -7,-15.47 -15.55,-15.44 -8.57,0.03 -15.48,7 -15.45,15.55 0.03,8.56 6.99,15.48 15.55,15.45 8.57,-0.03 15.48,-6.99 15.45,-15.56"
         style="fill:#1f0004;fill-opacity:1;fill-rule:nonzero;stroke:none"
         id="path64" /><path
         d="m 4523.79,4228.7 -1.9,-53.13 22.21,-0.08"
         style="fill:none;stroke:#1f0004;stroke-width:4.90311;stroke-linecap:round;stroke-linejoin:round;stroke-miterlimit:10;stroke-dasharray:none;stroke-opacity:1"
         id="path66" /><path
         d="m 4569.91,4344.38 c 0,0 -4.55,-16.69 21.39,-17.05 19.71,-0.28 43.71,-5.4 55.06,-7.82 6.44,-1.37 13.38,1.13 16.42,5.89 v 0 c 2.47,3.85 1.94,8.39 -1.52,11.57 -6.99,6.43 -32.9,21.21 -56.87,21.8 -30.77,0.75 -34.48,-14.39 -34.48,-14.39"
         style="fill:#1f0004;fill-opacity:1;fill-rule:nonzero;stroke:none"
         id="path68" /><path
         d="m 4490.68,4343.98 c 0,0 4.55,-16.69 -21.38,-17.05 -19.71,-0.28 -43.71,-5.41 -55.06,-7.82 -6.45,-1.37 -13.38,1.12 -16.44,5.89 v 0 c -2.46,3.84 -1.92,8.39 1.54,11.56 6.99,6.44 32.9,21.21 56.86,21.8 30.77,0.76 34.48,-14.38 34.48,-14.38"
         style="fill:#1f0004;fill-opacity:1;fill-rule:nonzero;stroke:none"
         id="path70" /><path
         d="m 4507.68,4112.59 c 0,0 37.57,-14.93 61.93,10.64"
         style="fill:none;stroke:#ffffff;stroke-width:4.90311;stroke-linecap:round;stroke-linejoin:round;stroke-miterlimit:10;stroke-dasharray:none;stroke-opacity:1"
         id="path72" /><path
         d="m 4713.55,4413.29 c 0,0 -138.02,105.27 -322.25,33.82 0,0 -87.22,107.29 48.02,146.83 135.23,39.54 261.87,-77.9 274.23,-180.65"
         style="fill:#200803;fill-opacity:1;fill-rule:nonzero;stroke:none"
         id="path74" /><path
         d="m 4010.72,2149.86 -27.06,-162.55 c -1.5,-9.02 -9.77,-15.31 -18.87,-14.34 v 0 c -9.21,0.98 -16.01,9.05 -15.42,18.29 l 5.11,78.96 56.24,79.64"
         style="fill:#e09069;fill-opacity:1;fill-rule:nonzero;stroke:none"
         id="path76" /><path
         d="m 3995.62,2410.28 c 23.89,8.72 50.26,-4.02 58.28,-28.15 l 12.97,-39.12 c 0,0 45.06,-73.62 23.6,-154.02 -13.42,-50.23 -14.08,-84.17 -12.7,-102.55 0.73,-9.57 -5.41,-18.3 -14.75,-20.48 l -0.1,-0.02 c -9.85,-2.3 -19.86,3.37 -22.73,13.08 -5.55,18.8 -12.91,51.32 -11.47,88.13 l -88.86,-181.29 c -3.7,-8.1 -13.63,-11.16 -21.26,-6.56 v 0 c -5.38,3.24 -8.15,9.5 -6.93,15.66 l 36.84,231.29 c 0,0 13.6,83.18 17.52,141.53 1.29,19.04 11.67,35.97 29.59,42.5 v 0"
         style="fill:#f5b087;fill-opacity:1;fill-rule:nonzero;stroke:none"
         id="path78" /><path
         d="m 3999.3,2841 -32.9,-469.59 83.41,-19.29 84.84,427.27 -135.35,61.61"
         style="fill:#f5b087;fill-opacity:1;fill-rule:nonzero;stroke:none"
         id="path80" /><path
         d="m 4204.92,3722.09 c 0,0 -152.66,-42.61 -187.88,-358.19 -36.46,-326.76 -118.69,-989.35 -118.69,-989.35 l 221.83,-5.93 166.44,1099.02 -81.7,254.45"
         style="fill:#ffffff;fill-opacity:1;fill-rule:nonzero;stroke:none"
         id="path82" /><path
         d="m 4385.18,3798.04 -73.77,-138.11 v -925.66 h 448.19 v 967.6 l -72.21,96.17 h -302.21"
         style="fill:#8bd5ee;fill-opacity:1;fill-rule:nonzero;stroke:none"
         id="path84" /><path
         d="m 4633.74,3831.35 -89.75,-90.67 -105.24,89.53 z"
         style="fill:#f5b087;fill-opacity:1;fill-rule:nonzero;stroke:none"
         id="path86" /><path
         d="m 4438.75,3830.21 -53.57,-32.17 79.23,-138.11 79.58,80.75 -105.24,89.53"
         style="fill:#afe2fd;fill-opacity:1;fill-rule:nonzero;stroke:none"
         id="path88" /><path
         d="m 4633.74,3831.35 53.65,-33.31 -63.66,-138.11 -79.57,80.75 89.58,90.67"
         style="fill:#afe2fd;fill-opacity:1;fill-rule:nonzero;stroke:none"
         id="path90" /><path
         d="m 4385.18,3798.04 -180.26,-75.95 -27.01,-1792.69 h 267 l -59.73,1868.64"
         style="fill:#ffffff;fill-opacity:1;fill-rule:nonzero;stroke:none"
         id="path92" /><path
         d="m 4191.64,2830.18 v 544.54"
         style="fill:none;stroke:#cfeae7;stroke-width:10.6487;stroke-linecap:round;stroke-linejoin:round;stroke-miterlimit:10;stroke-dasharray:none;stroke-opacity:1"
         id="path94" /><path
         d="m 4381.05,3793.54 -122.52,-133.61 85.19,-56.57 -57.1,-66.49 124.06,-536.68"
         style="fill:none;stroke:#cfeae7;stroke-width:10.6487;stroke-linecap:round;stroke-linejoin:round;stroke-miterlimit:10;stroke-dasharray:none;stroke-opacity:1"
         id="path96" /><path
         d="m 4687.39,3798.04 180.26,-75.95 52.34,-1792.69 h -267.01 l 34.41,1868.64"
         style="fill:#ffffff;fill-opacity:1;fill-rule:nonzero;stroke:none"
         id="path98" /><path
         d="m 4693.62,3793.54 122.53,-133.61 -85.18,-56.57 57.1,-66.49 L 4664,3000.19"
         style="fill:none;stroke:#cfeae7;stroke-width:10.6487;stroke-linecap:round;stroke-linejoin:round;stroke-miterlimit:10;stroke-dasharray:none;stroke-opacity:1"
         id="path100" /><path
         d="m 4840.33,3731.54 c 0,0 157.84,-14.36 249.43,-318.4 55.5,-184.26 87.95,-333.97 105.33,-426.46 10.66,-56.75 -9.63,-144.61 -66.1,-156.74 v 0 c -52.84,-11.36 -122.26,51.61 -139.81,102.72 l -183.29,533.87 34.44,265.01"
         style="fill:#ffffff;fill-opacity:1;fill-rule:nonzero;stroke:none"
         id="path102" /><path
         d="m 4688.32,3192.92 102.07,218.54 414.98,77.01 -254.76,-408.99 -64.94,-61.34 -100.47,-17.95 -119.19,96.01 22.31,96.72"
         style="fill:#2862b7;fill-opacity:1;fill-rule:nonzero;stroke:none"
         id="path104" /><path
         d="m 4910.15,3059.29 -130.04,13.51 c 0,0 43,105.82 -91.79,120.12 l 13.21,29.99 -27.38,-2.6 c -25.55,-4.14 -48.4,-18.24 -63.55,-39.21 l -20.97,-45.9 c -9.52,-13.17 -14.65,-29.01 -14.65,-45.26 v -20.35 c 0,-28.92 16.15,-55.42 41.86,-68.67 l 104.26,-45.53 c 0,0 106.93,-42.91 263.85,-32.45 0,0 8.9,104.96 -74.8,136.35"
         style="fill:#f5b087;fill-opacity:1;fill-rule:nonzero;stroke:none"
         id="path106" /><path
         d="m 4870.38,3076.18 -48.02,-226.4 293.01,-21.05 13.62,247.45 h -258.61"
         style="fill:#ffffff;fill-opacity:1;fill-rule:nonzero;stroke:none"
         id="path108" /><path
         d="m 4960.91,3079.48 h 130.54"
         style="fill:none;stroke:#cfeae7;stroke-width:10.6487;stroke-linecap:round;stroke-linejoin:round;stroke-miterlimit:10;stroke-dasharray:none;stroke-opacity:1"
         id="path110" /><path
         d="m 2687.88,3655.21 c 0,0 -122.44,-57.37 -132.14,-238.48 -9.7,-181.12 15.32,-417.05 15.32,-417.05 l 142.3,15.27 42.08,461.75 -67.56,178.51"
         style="fill:#f5b087;fill-opacity:1;fill-rule:nonzero;stroke:none"
         id="path112" /><path
         d="m 2674.72,3652.1 c 0,0 -130.51,-0.85 -148.83,-324.66 h 191.4 l -42.57,324.66"
         style="fill:#357dd1;fill-opacity:1;fill-rule:nonzero;stroke:none"
         id="path114" /><path
         d="m 2571.06,2999.68 11.16,-667.18 c 0.36,-21.79 17.34,-39.68 39.08,-41.19 v 0 c 23.14,-1.61 43.21,15.86 44.81,39 l 47.25,684.64 -142.3,-15.27"
         style="fill:#f5b087;fill-opacity:1;fill-rule:nonzero;stroke:none"
         id="path116" /><path
         d="m 2582.18,2138.32 -53.43,-140.34 c -2.96,-7.78 -11.48,-11.92 -19.43,-9.42 v 0 c -8.06,2.53 -12.68,10.97 -10.48,19.13 l 18.76,69.61 64.58,61.02"
         style="fill:#e09069;fill-opacity:1;fill-rule:nonzero;stroke:none"
         id="path118" /><path
         d="m 2615.54,2373.68 c 22.91,3.49 44.17,-12.64 46.99,-35.64 l 4.56,-37.28 c 0,0 27,-73.88 -6.64,-141.82 -21.03,-42.47 -27.72,-72.67 -29.79,-89.35 -1.08,-8.67 -8.13,-15.36 -16.87,-15.62 l -0.09,-0.01 c -9.22,-0.28 -17.14,6.59 -17.95,15.78 -1.58,17.79 -2.3,48.17 5.62,80.79 l -112,-145.97 c -4.77,-6.56 -14.19,-7.51 -20.18,-2.03 v 0 c -4.22,3.87 -5.57,9.95 -3.37,15.24 l 74.52,199.98 c 0,0 27.12,71.87 41.12,123.28 4.58,16.77 16.89,30.03 34.08,32.65 v 0"
         style="fill:#f5b087;fill-opacity:1;fill-rule:nonzero;stroke:none"
         id="path120" /><path
         d="m 2583.42,528.051 -110,-54.281 c -11.65,-5.75 -18.72,-18.93 -15.1,-31.418 2.86,-9.864 12.19,-18.954 36.67,-19.391 54.38,-0.969 295.07,36.531 295.07,36.531 V 434.25 l 111.68,12.621 c 0,0 7.81,127.711 -26.2,146.399 l -292.12,-65.219"
         style="fill:#241812;fill-opacity:1;fill-rule:nonzero;stroke:none"
         id="path122" /><path
         d="M 2760.74,655.859 2583.42,528.051 c 0,0 18.97,-48.762 102.94,-16.25 83.98,32.508 189.18,81.469 189.18,81.469 l -15.34,76.402 -99.46,-13.813"
         style="fill:#f5b087;fill-opacity:1;fill-rule:nonzero;stroke:none"
         id="path124" /><path
         d="m 2875.54,593.27 26.97,473.57 -177.1,-16.82 15.76,-439.879 134.37,-16.871"
         style="fill:#f5b087;fill-opacity:1;fill-rule:nonzero;stroke:none"
         id="path126" /><path
         d="m 3310.61,528.051 110,-54.281 c 11.66,-5.75 18.73,-18.93 15.1,-31.418 -2.85,-9.864 -12.18,-18.954 -36.66,-19.391 -54.38,-0.969 -295.08,36.531 -295.08,36.531 V 434.25 l -111.68,12.621 c 0,0 -7.8,127.711 26.21,146.399 l 292.11,-65.219"
         style="fill:#241812;fill-opacity:1;fill-rule:nonzero;stroke:none"
         id="path128" /><path
         d="m 3133.3,655.859 177.31,-127.808 c 0,0 -18.96,-48.762 -102.94,-16.25 -83.97,32.508 -189.17,81.469 -189.17,81.469 l 15.33,76.402 99.47,-13.813"
         style="fill:#f5b087;fill-opacity:1;fill-rule:nonzero;stroke:none"
         id="path130" /><path
         d="m 3018.5,593.27 v 481.97 l 177.1,-16.81 -42.73,-448.289 -134.37,-16.871"
         style="fill:#f5b087;fill-opacity:1;fill-rule:nonzero;stroke:none"
         id="path132" /><path
         d="m 2773.84,3015.36 c 0,0 -165.3,-111.18 -130.6,-618.69 34.7,-507.51 67.68,-1668.69 67.68,-1668.69 h 189.47 l 60.62,1858.83 29.38,-4 -0.81,-1854.83 h 189.47 l 120.29,1706.58 c 0,0 51.6,338.65 -114.36,580.8 0,0 -192.17,126.56 -411.14,0"
         style="fill:#255d9f;fill-opacity:1;fill-rule:nonzero;stroke:none"
         id="path134" /><path
         d="m 2903.45,2586.93 158.28,-8.24"
         style="fill:none;stroke:#1f0004;stroke-width:4.90311;stroke-linecap:round;stroke-linejoin:round;stroke-miterlimit:10;stroke-dasharray:none;stroke-opacity:1"
         id="path136" /><path
         d="m 2662.21,2785.01 -5.29,-27.81 637.18,-32.02 c 0,0 -10.87,69.83 -26.73,115.82 l -605.16,-55.99"
         style="fill:#245891;fill-opacity:1;fill-rule:nonzero;stroke:none"
         id="path138" /><path
         d="m 3276.45,3991.99 c 0,-128.29 -130.73,-211.9 -291.99,-211.9 -161.26,0 -291.98,83.61 -291.98,211.9 0,128.28 130.72,232.28 291.98,232.28 161.26,0 291.99,-104 291.99,-232.28"
         style="fill:#200803;fill-opacity:1;fill-rule:nonzero;stroke:none"
         id="path140" /><path
         d="m 2809.26,4121.29 c 0,0 -33.26,25.84 -57.56,-4.84 -36.93,-46.63 27.69,-131.05 83.9,-87.58 l -26.34,92.42"
         style="fill:#f5b087;fill-opacity:1;fill-rule:nonzero;stroke:none"
         id="path142" /><path
         d="m 2775.62,4089.98 c 0,0 18.59,5.84 38.7,-33.33"
         style="fill:none;stroke:#1f0004;stroke-width:4.79816;stroke-linecap:round;stroke-linejoin:round;stroke-miterlimit:10;stroke-dasharray:none;stroke-opacity:1"
         id="path144" /><path
         d="m 3165.86,4121.29 c 0,0 33.26,25.84 57.56,-4.84 36.93,-46.63 -27.69,-131.05 -83.89,-87.58 l 26.33,92.42"
         style="fill:#f5b087;fill-opacity:1;fill-rule:nonzero;stroke:none"
         id="path146" /><path
         d="m 3199.51,4089.98 c 0,0 -18.6,5.84 -38.71,-33.33"
         style="fill:none;stroke:#1f0004;stroke-width:4.79816;stroke-linecap:round;stroke-linejoin:round;stroke-miterlimit:10;stroke-dasharray:none;stroke-opacity:1"
         id="path148" /><path
         d="m 3201.48,4224.27 c 0,-114.58 -95.25,-207.47 -212.76,-207.47 -117.5,0 -212.75,92.89 -212.75,207.47 0,114.58 95.25,207.47 212.75,207.47 117.51,0 212.76,-92.89 212.76,-207.47"
         style="fill:#200803;fill-opacity:1;fill-rule:nonzero;stroke:none"
         id="path150" /><path
         d="m 2921.76,3933.18 -20.22,-219.76 h 170.85 l -31.65,222.15 -118.98,-2.39"
         style="fill:#f5b087;fill-opacity:1;fill-rule:nonzero;stroke:none"
         id="path152" /><path
         d="m 2932.26,3918.36 c 4.7,-2.7 118.11,-85.85 118.11,-85.85 l -9.63,103.06 -108.48,-17.21"
         style="fill:#e09069;fill-opacity:1;fill-rule:nonzero;stroke:none"
         id="path154" /><path
         d="m 2800.95,4225.13 c 0,0 1.07,-320.49 180.42,-320.49 210.78,0 188.67,320.31 188.67,320.31 0,0 -1.19,144.23 -182.18,144.23 -165.92,0 -186.91,-144.05 -186.91,-144.05"
         style="fill:#f5b087;fill-opacity:1;fill-rule:nonzero;stroke:none"
         id="path156" /><path
         d="m 2924.65,4122.17 c 0,-8.49 -6.89,-15.38 -15.38,-15.38 -8.5,0 -15.38,6.89 -15.38,15.38 0,8.49 6.88,15.38 15.38,15.38 8.49,0 15.38,-6.89 15.38,-15.38"
         style="fill:#000000;fill-opacity:1;fill-rule:nonzero;stroke:none"
         id="path158" /><path
         d="m 3078.37,4122.17 c 0,-8.49 -6.88,-15.38 -15.38,-15.38 -8.49,0 -15.38,6.89 -15.38,15.38 0,8.49 6.89,15.38 15.38,15.38 8.5,0 15.38,-6.89 15.38,-15.38"
         style="fill:#000000;fill-opacity:1;fill-rule:nonzero;stroke:none"
         id="path160" /><path
         d="m 2975.28,4087.87 v -29.3 l 18.2,-0.33"
         style="fill:none;stroke:#1f0004;stroke-width:4.79816;stroke-linecap:round;stroke-linejoin:round;stroke-miterlimit:10;stroke-dasharray:none;stroke-opacity:1"
         id="path162" /><path
         d="m 3022.47,4209.33 c 0,0 -4.46,-12.88 20.93,-13.16 19.29,-0.21 42.78,-4.17 53.88,-6.03 6.31,-1.06 13.1,0.87 16.08,4.54 v 0 c 2.41,2.97 1.88,6.48 -1.5,8.93 -6.84,4.97 -32.19,16.37 -55.64,16.83 -30.12,0.58 -33.75,-11.11 -33.75,-11.11"
         style="fill:#200803;fill-opacity:1;fill-rule:nonzero;stroke:none"
         id="path164" /><path
         d="m 2944.94,4209.02 c 0,0 4.45,-12.89 -20.94,-13.16 -19.27,-0.22 -42.77,-4.17 -53.87,-6.04 -6.31,-1.05 -13.09,0.87 -16.08,4.55 v 0 c -2.41,2.97 -1.88,6.48 1.49,8.93 6.85,4.97 32.2,16.37 55.65,16.83 30.12,0.58 33.75,-11.11 33.75,-11.11"
         style="fill:#200803;fill-opacity:1;fill-rule:nonzero;stroke:none"
         id="path166" /><path
         d="m 2937.85,4023.26 h 95.96 c 0,0 -14.59,-31.27 -51.45,-31.27 -36.86,0 -44.51,31.27 -44.51,31.27"
         style="fill:#ffffff;fill-opacity:1;fill-rule:nonzero;stroke:none"
         id="path168" /><path
         d="m 2965.68,4118.07 c 0,-41.36 -33.53,-74.88 -74.88,-74.88 -41.36,0 -74.88,33.52 -74.88,74.88 0,41.36 33.52,74.88 74.88,74.88 41.35,0 74.88,-33.52 74.88,-74.88 z"
         style="fill:none;stroke:#ffffff;stroke-width:8.29763;stroke-linecap:butt;stroke-linejoin:miter;stroke-miterlimit:10;stroke-dasharray:none;stroke-opacity:1"
         id="path170" /><path
         d="m 3152.84,4118.07 c 0,-41.36 -33.52,-74.88 -74.88,-74.88 -41.35,0 -74.87,33.52 -74.87,74.88 0,41.36 33.52,74.88 74.87,74.88 41.36,0 74.88,-33.52 74.88,-74.88 z"
         style="fill:none;stroke:#ffffff;stroke-width:8.29763;stroke-linecap:butt;stroke-linejoin:miter;stroke-miterlimit:10;stroke-dasharray:none;stroke-opacity:1"
         id="path172" /><path
         d="m 3003.09,4118.07 c -17.26,15.36 -37.41,0 -37.41,0"
         style="fill:none;stroke:#ffffff;stroke-width:8.29763;stroke-linecap:butt;stroke-linejoin:miter;stroke-miterlimit:10;stroke-dasharray:none;stroke-opacity:1"
         id="path174" /><path
         d="m 2784.65,4229.28 c 0,0 195.86,-36.75 203.21,139.9 0,0 -98.89,112.37 -203.21,-139.9"
         style="fill:#200803;fill-opacity:1;fill-rule:nonzero;stroke:none"
         id="path176" /><path
         d="m 3179.98,4229.28 c 0,0 -195.86,-36.75 -203.21,139.9 0,0 98.88,112.37 203.21,-139.9"
         style="fill:#200803;fill-opacity:1;fill-rule:nonzero;stroke:none"
         id="path178" /><path
         d="m 2901.54,3713.42 -226.82,-61.32 c 0,0 40.66,-339.8 79.15,-556.94 3.34,-18.79 -114.76,-293.49 -111.66,-310.15 l 671.98,0.94 c 0,0 -113.66,277.17 -104.98,312.31 29.98,121.29 97.72,560.48 97.72,560.48 l -234.54,54.68 h -170.85"
         style="fill:#2862b7;fill-opacity:1;fill-rule:nonzero;stroke:none"
         id="path180" /><path
         d="m 2901.54,3713.42 82.92,-187.91 87.93,187.91 z"
         style="fill:#f5b087;fill-opacity:1;fill-rule:nonzero;stroke:none"
         id="path182" /><path
         d="m 2897.77,3710.07 -58.01,-51.72 144.7,-132.84"
         style="fill:none;stroke:#23538a;stroke-width:10.2917;stroke-linecap:round;stroke-linejoin:round;stroke-miterlimit:10;stroke-dasharray:none;stroke-opacity:1"
         id="path184" /><path
         d="m 3076.53,3707.5 55.13,-49.15 -147.2,-132.84"
         style="fill:none;stroke:#23538a;stroke-width:10.2917;stroke-linecap:round;stroke-linejoin:round;stroke-miterlimit:10;stroke-dasharray:none;stroke-opacity:1"
         id="path186" /><path
         d="m 3152.84,3694.66 c 0,0 63.89,-42.89 34.06,-250.9"
         style="fill:none;stroke:#1f0004;stroke-width:10.2917;stroke-linecap:round;stroke-linejoin:round;stroke-miterlimit:10;stroke-dasharray:none;stroke-opacity:1"
         id="path188" /><path
         d="m 3234.99,3426.27 c 0,-26.55 -21.53,-48.09 -48.09,-48.09 -26.56,0 -48.09,21.54 -48.09,48.09 0,26.57 21.53,48.1 48.09,48.1 26.56,0 48.09,-21.53 48.09,-48.1"
         style="fill:#1f0004;fill-opacity:1;fill-rule:nonzero;stroke:none"
         id="path190" /><path
         d="m 3213.61,3426.27 c 0,-14.75 -11.96,-26.7 -26.71,-26.7 -14.75,0 -26.7,11.95 -26.7,26.7 0,14.76 11.95,26.71 26.7,26.71 14.75,0 26.71,-11.95 26.71,-26.71"
         style="fill:#8bd5ee;fill-opacity:1;fill-rule:nonzero;stroke:none"
         id="path192" /><path
         d="m 2814.32,3689.84 c 0,0 -58.88,-70.38 -17.85,-216.42"
         style="fill:none;stroke:#1f0004;stroke-width:10.2917;stroke-linecap:round;stroke-linejoin:round;stroke-miterlimit:10;stroke-dasharray:none;stroke-opacity:1"
         id="path194" /><path
         d="m 2817.4,3199.92 c 5.14,-12.14 17.02,-19.46 29.5,-19.46 4.11,0 8.28,0.8 12.29,2.47 l 8.65,3.62 c 2.62,1.1 3.85,4.11 2.76,6.74 -1.11,2.62 -4.13,3.83 -6.73,2.75 l -8.65,-3.62 c -10.99,-4.57 -23.71,0.59 -28.34,11.51 -9.43,22.3 -25.26,60.07 -39.54,94.21 -3.12,-1.42 -6.25,-2.82 -9.37,-4.25 14.25,-34.09 30.02,-71.73 39.43,-93.97"
         style="fill:#8bd5ee;fill-opacity:1;fill-rule:nonzero;stroke:none"
         id="path196" /><path
         d="m 2980.84,3268.45 -39.7,95.01 c -3.2,-1.24 -6.37,-2.55 -9.56,-3.8 l 39.76,-95.17 c 2.24,-5.36 2.26,-11.26 0.05,-16.63 -2.2,-5.36 -6.36,-9.54 -11.71,-11.79 l -14.43,-6.03 c -2.62,-1.09 -3.85,-4.11 -2.76,-6.73 1.1,-2.63 4.13,-3.86 6.73,-2.76 l 14.43,6.04 c 16.28,6.79 23.99,25.57 17.19,41.86"
         style="fill:#8bd5ee;fill-opacity:1;fill-rule:nonzero;stroke:none"
         id="path198" /><path
         d="m 2913.48,3429.68 c -9.13,21.85 -26.23,38.84 -48.14,47.83 -21.91,9 -46.01,8.94 -67.86,-0.21 -44.97,-18.79 -66.38,-70.71 -47.72,-115.74 4.97,-12.01 16.03,-38.55 28.21,-67.67 3.12,1.43 6.25,2.83 9.37,4.25 -12.12,29 -23.12,55.39 -28.08,67.36 -16.48,39.8 2.44,85.71 42.19,102.32 19.31,8.06 40.61,8.13 59.98,0.18 19.37,-7.95 34.48,-22.97 42.54,-42.28 l 27.61,-66.06 c 3.19,1.25 6.36,2.56 9.56,3.8 l -27.66,66.22"
         style="fill:#1f0004;fill-opacity:1;fill-rule:nonzero;stroke:none"
         id="path200" /><path
         d="m 2886.62,3199.97 c 3.71,-8.87 -0.48,-19.07 -9.35,-22.77 -8.88,-3.71 -19.08,0.48 -22.78,9.35 -3.71,8.87 0.48,19.07 9.35,22.78 8.87,3.7 19.07,-0.48 22.78,-9.36"
         style="fill:#1f0004;fill-opacity:1;fill-rule:nonzero;stroke:none"
         id="path202" /><path
         d="m 2953.34,3227.85 c 3.71,-8.88 -0.48,-19.07 -9.36,-22.78 -8.87,-3.71 -19.07,0.48 -22.77,9.35 -3.71,8.88 0.48,19.08 9.35,22.78 8.87,3.71 19.07,-0.48 22.78,-9.35"
         style="fill:#1f0004;fill-opacity:1;fill-rule:nonzero;stroke:none"
         id="path204" /><path
         d="m 3360.21,3563.4 84.27,-32.64 c 74.47,-165.38 149.95,-354.34 149.95,-354.34 l -138.2,-37.17 -168.36,250.01 72.34,174.14"
         style="fill:#f5b087;fill-opacity:1;fill-rule:nonzero;stroke:none"
         id="path206" /><path
         d="m 3256.91,3375.79 42.19,-48.35 195.94,79.86 c 0,0 -54.76,219.94 -188.18,251.05 l -49.95,-282.56"
         style="fill:#357dd1;fill-opacity:1;fill-rule:nonzero;stroke:none"
         id="path208" /><path
         d="m 3594.43,3088.38 -348.09,-399.35 -33.35,95.98 243.24,354.24 138.2,-50.87"
         style="fill:#f5b087;fill-opacity:1;fill-rule:nonzero;stroke:none"
         id="path210" /><path
         d="m 3212.99,2785.01 -29.71,-18.68 77.55,-183.52 14.2,148 -62.04,54.2"
         style="fill:#f5b087;fill-opacity:1;fill-rule:nonzero;stroke:none"
         id="path212" /><path
         d="m 3594.43,3176.42 c 0,0 41.9,-54.95 0,-88.04 -41.89,-33.09 -132.89,-12.41 -132.89,-12.41 l -5.31,63.28 138.2,37.17"
         style="fill:#f5b087;fill-opacity:1;fill-rule:nonzero;stroke:none"
         id="path214" /><path
         d="m 983.32,525.992 -98.121,-54.023 c -10.398,-5.719 -16.703,-18.84 -13.469,-31.258 2.547,-9.813 10.926,-17.313 32.75,-17.75 48.512,-0.969 315.17,34.801 315.17,34.801 v -27.571 l 100.31,-0.261 c 0,0 6.27,142.359 -24.07,160.949 L 983.32,525.992"
         style="fill:#241812;fill-opacity:1;fill-rule:nonzero;stroke:none"
         id="path216" /><path
         d="m 1166.78,614.082 -183.46,-88.09 c 0,0 68.92,-48.523 143.83,-16.183 74.91,32.351 168.74,81.07 168.74,81.07 l -13.68,36.941 -115.43,-13.738"
         style="fill:#c7777a;fill-opacity:1;fill-rule:nonzero;stroke:none"
         id="path218" /><path
         d="m 1282.21,627.82 13.68,408.71 -140.68,-8.61 V 571.68 l 127,56.14"
         style="fill:#c7777a;fill-opacity:1;fill-rule:nonzero;stroke:none"
         id="path220" /><path
         d="m 2203.38,525.992 98.12,-54.023 c 10.4,-5.719 16.7,-18.84 13.47,-31.258 -2.55,-9.813 -10.93,-17.313 -32.75,-17.75 -48.51,-0.969 -315.17,34.801 -315.17,34.801 v -28.821 l -98.89,1.25 c 0,0 -7.69,142.098 22.65,160.688 l 312.57,-64.887"
         style="fill:#241812;fill-opacity:1;fill-rule:nonzero;stroke:none"
         id="path222" /><path
         d="m 2019.92,614.082 183.46,-88.09 c 0,0 -68.93,-48.523 -143.83,-16.183 -74.91,32.351 -168.74,81.07 -168.74,81.07 l 13.68,36.941 115.43,-13.738"
         style="fill:#c7777a;fill-opacity:1;fill-rule:nonzero;stroke:none"
         id="path224" /><path
         d="m 1904.49,627.82 -102.89,408.71 140.69,-8.61 100.53,-465.568 -138.33,65.468"
         style="fill:#c7777a;fill-opacity:1;fill-rule:nonzero;stroke:none"
         id="path226" /><path
         d="m 1242.24,2946.75 c 0,0 -183.61,-315.69 -178.79,-594.37 4.83,-278.68 63.01,-1600.771 63.01,-1600.771 h 211.8 l 67.04,1727.581 27.96,1.71 382.59,-1729.978 197.66,20.937 -229.7,1564.361 c -15.72,100.5 -42.66,199.01 -81.79,292.91 -33.45,80.25 -73.64,215.42 -130.96,286.23 l -328.82,31.39"
         style="fill:#255d9f;fill-opacity:1;fill-rule:nonzero;stroke:none"
         id="path228" /><path
         d="M 1507.73,2509.23 1405.3,2479.19"
         style="fill:none;stroke:#000000;stroke-width:9.22426;stroke-linecap:round;stroke-linejoin:round;stroke-miterlimit:10;stroke-dasharray:none;stroke-opacity:1"
         id="path230" /><path
         d="m 1402.6,4438.39 c 0,0 241.73,29.75 254.59,-173.58 l 6.77,-139.44 -236.14,-53.87 -25.22,366.89"
         style="fill:#200803;fill-opacity:1;fill-rule:nonzero;stroke:none"
         id="path232" /><path
         d="m 1198.93,4300.62 c 0,0 -53.58,-113.4 -59.59,-364.07 -1.04,-43.37 33.79,-79.17 77.18,-79.17 h 406.4 c 53.47,0 92.64,53.2 74.07,103.34 -19.9,53.75 -29.9,128.85 -37.08,226.21 l -460.98,113.69"
         style="fill:#200803;fill-opacity:1;fill-rule:nonzero;stroke:none"
         id="path234" /><path
         d="m 1177.03,4194.41 c 4.56,-124.47 113.97,-221.5 244.39,-216.73 130.41,4.77 232.44,109.54 227.89,234 -4.55,124.47 -116.3,231.48 -246.71,226.71 -130.42,-4.76 -230.12,-119.51 -225.57,-243.98"
         style="fill:#200803;fill-opacity:1;fill-rule:nonzero;stroke:none"
         id="path236" /><path
         d="m 1559.55,4112.8 c 10.96,-31.94 45.75,-48.94 77.69,-37.97 31.93,10.97 48.94,45.75 37.97,77.69 -10.97,31.94 -45.76,48.94 -77.7,37.97 -31.94,-10.97 -48.94,-45.76 -37.96,-77.69"
         style="fill:#ac555d;fill-opacity:1;fill-rule:nonzero;stroke:none"
         id="path238" /><path
         d="m 1485.32,3984.99 3.75,-233.17 -172.95,3.54 52.78,353.68 116.42,-124.05"
         style="fill:#c7777a;fill-opacity:1;fill-rule:nonzero;stroke:none"
         id="path240" /><path
         d="m 1487.2,3868.3 -119.02,132.16 117.14,-15.47 z"
         style="fill:#ac555d;fill-opacity:1;fill-rule:nonzero;stroke:none"
         id="path242" /><path
         d="m 1573.87,4351.01 c 15.25,-12.69 42.13,-48.75 46.91,-68.28 14.17,-57.93 32.69,-145.84 16.46,-207.9 -21.11,-80.7 -68.96,-148.93 -170.06,-130.77 0,0 -120.54,10.52 -153.78,169.87 -52.95,253.89 129.84,345.67 260.47,237.08"
         style="fill:#c7777a;fill-opacity:1;fill-rule:nonzero;stroke:none"
         id="path244" /><path
         d="m 1562.35,4140.21 15.05,-41.35 -24.12,-4.17"
         style="fill:none;stroke:#1f0004;stroke-width:4.86653;stroke-linecap:round;stroke-linejoin:round;stroke-miterlimit:10;stroke-dasharray:none;stroke-opacity:1"
         id="path246" /><path
         d="m 1470.17,4161.35 c 0,-8.24 6.68,-14.92 14.92,-14.92 8.24,0 14.91,6.68 14.91,14.92 0,8.24 -6.67,14.92 -14.91,14.92 -8.24,0 -14.92,-6.68 -14.92,-14.92"
         style="fill:#210702;fill-opacity:1;fill-rule:nonzero;stroke:none"
         id="path248" /><path
         d="m 1589.71,4166.5 c 0,-7.65 6.19,-13.84 13.83,-13.84 7.64,0 13.83,6.19 13.83,13.84 0,7.63 -6.19,13.83 -13.83,13.83 -7.64,0 -13.83,-6.2 -13.83,-13.83"
         style="fill:#210702;fill-opacity:1;fill-rule:nonzero;stroke:none"
         id="path250" /><path
         d="m 1578.28,4255.23 c 0,0 -5.57,-12.92 15.31,-15.56 15.85,-2.01 25.93,-3.09 34.8,-6.05 5.04,-1.68 10.92,-0.32 13.91,3.21 v 0 c 2.43,2.85 2.51,6.53 0.09,9.38 -4.91,5.77 -15.42,14.73 -34.68,17.38 -24.72,3.39 -29.43,-8.36 -29.43,-8.36"
         style="fill:#210702;fill-opacity:1;fill-rule:nonzero;stroke:none"
         id="path252" /><path
         d="m 1509.92,4256.41 c 0,0 6.39,-13.01 -20.54,-15.28 -20.44,-1.73 -44.88,-7.66 -56.44,-10.47 -6.56,-1.59 -14.01,-0.12 -17.65,3.46 v 0 c -2.94,2.89 -2.83,6.57 0.44,9.38 6.63,5.68 32.08,19.49 56.93,21.79 31.91,2.96 37.26,-8.88 37.26,-8.88"
         style="fill:#210702;fill-opacity:1;fill-rule:nonzero;stroke:none"
         id="path254" /><path
         d="m 1567.87,4057.43 c 0,0 -34.08,-7.07 -74.79,10.87"
         style="fill:none;stroke:#1f0004;stroke-width:4.86653;stroke-linecap:round;stroke-linejoin:round;stroke-miterlimit:10;stroke-dasharray:none;stroke-opacity:1"
         id="path256" /><path
         d="m 1574.54,4115.02 c 0,0 -166.84,1.47 -221.38,-97.28 0,0 46.89,-87.43 157.64,-78.98 18.18,1.39 35.94,7.14 51.27,17 25.38,16.32 58.02,53.78 75.17,119.07 l -62.7,40.19"
         style="fill:#ffffff;fill-opacity:1;fill-rule:nonzero;stroke:none"
         id="path258" /><path
         d="m 1328.46,4149.56 123.62,-83.67"
         style="fill:none;stroke:#ffffff;stroke-width:10;stroke-linecap:butt;stroke-linejoin:miter;stroke-miterlimit:10;stroke-dasharray:none;stroke-opacity:1"
         id="path260" /><path
         d="m 1334.11,4053.21 33.04,-47.15"
         style="fill:none;stroke:#ffffff;stroke-width:10;stroke-linecap:butt;stroke-linejoin:miter;stroke-miterlimit:10;stroke-dasharray:none;stroke-opacity:1"
         id="path262" /><path
         d="m 1332.58,4278.87 24.45,-159.16 -149.92,110.31 z"
         style="fill:#200803;fill-opacity:1;fill-rule:nonzero;stroke:none"
         id="path264" /><path
         d="m 1535.3,4390.77 c 0,0 -84.68,-149.02 -253.74,-203.84 0,0 -69.45,3.62 0,125.35 69.45,121.74 253.74,78.49 253.74,78.49"
         style="fill:#200803;fill-opacity:1;fill-rule:nonzero;stroke:none"
         id="path266" /><path
         d="m 1232.82,4085.39 c 11.87,-34.57 49.51,-52.95 84.06,-41.09 34.56,11.87 52.95,49.51 41.08,84.06 -11.87,34.56 -49.5,52.95 -84.05,41.08 -34.56,-11.87 -52.95,-49.5 -41.09,-84.05"
         style="fill:#c7777a;fill-opacity:1;fill-rule:nonzero;stroke:none"
         id="path268" /><path
         d="m 1270.12,4122.23 c 0,0 46.9,17.56 58.34,-34.53"
         style="fill:none;stroke:#1f0004;stroke-width:4.86653;stroke-linecap:round;stroke-linejoin:round;stroke-miterlimit:10;stroke-dasharray:none;stroke-opacity:1"
         id="path270" /><path
         d="m 1602.56,3727.19 c 0,0 207.86,-9.14 272.2,-215.17 64.33,-206.03 224.28,-451.75 34.64,-578.77 l -222.31,132.69 -84.53,661.25"
         style="fill:#ffffff;fill-opacity:1;fill-rule:nonzero;stroke:none"
         id="path272" /><path
         d="m 1617.37,2899.36 h -388.15 v 790.16 h 388.15 v -790.16"
         style="fill:#8bd5ee;fill-opacity:1;fill-rule:nonzero;stroke:none"
         id="path274" /><path
         d="m 1316.12,3755.36 -92.37,-23.82 c 0,0 57.27,-159.25 251.78,-138.7 194.5,20.56 103.25,140.8 103.25,140.8 l -89.71,18.18 -172.95,3.54"
         style="fill:#c7777a;fill-opacity:1;fill-rule:nonzero;stroke:none"
         id="path276" /><path
         d="m 1294.48,3749.78 c 0,0 73.7,-854.29 49.64,-1836.32 H 916.227 l 192.683,1168.07 -63.1,532.85 c -4.6,39.09 19.8,75.75 57.62,86.61 l 191.05,48.79"
         style="fill:#ffffff;fill-opacity:1;fill-rule:nonzero;stroke:none"
         id="path278" /><path
         d="m 1288.75,3745.01 -136.26,-113.36 98.2,-57.21 -73.81,-76.28 151.58,-445.6"
         style="fill:none;stroke:#cfeae7;stroke-width:10.6487;stroke-linecap:round;stroke-linejoin:round;stroke-miterlimit:10;stroke-dasharray:none;stroke-opacity:1"
         id="path280" /><path
         d="m 1489.07,3751.82 c 0,0 64.21,-100.98 62.85,-654.71 -1.11,-450.67 63.78,-1162.71 63.78,-1162.71 h 291.05 l -240.49,1176.6 11.31,555.06 c 0.56,27.42 -18.58,51.32 -45.46,56.77 l -143.04,28.99"
         style="fill:#ffffff;fill-opacity:1;fill-rule:nonzero;stroke:none"
         id="path282" /><path
         d="m 1675.41,3562.3 -4.79,-214.58"
         style="fill:none;stroke:#cfeae7;stroke-width:10.6487;stroke-linecap:round;stroke-linejoin:round;stroke-miterlimit:10;stroke-dasharray:none;stroke-opacity:1"
         id="path284" /><path
         d="m 1495.08,3751.82 137.58,-110.77 -55.26,-50.04 55.26,-42.83 -64.79,-503.94"
         style="fill:none;stroke:#cfeae7;stroke-width:10.6487;stroke-linecap:round;stroke-linejoin:round;stroke-miterlimit:10;stroke-dasharray:none;stroke-opacity:1"
         id="path286" /><path
         d="m 1609.26,3454.24 -106.76,-375.42 148.65,-18.55 26.31,40.48 144.34,438.04 -212.54,-84.55"
         style="fill:#2862b7;fill-opacity:1;fill-rule:nonzero;stroke:none"
         id="path288" /><path
         d="m 1697.91,3087.58 7.99,58.72 c 5.66,13 6.78,27.9 -7.08,30.93 v 0 c -8.08,1.77 -16.49,-1.05 -21.88,-7.33 l -37.22,-46.77 c 0,0 -87.55,-8.84 -108.74,73.43 0,0 -42.39,21.45 -60.35,-123.76 -2.94,-23.8 6.47,-47.74 25.14,-62.79 25.92,-20.89 71.9,-40.26 146.45,-19.17 l 55.69,96.74"
         style="fill:#c7777a;fill-opacity:1;fill-rule:nonzero;stroke:none"
         id="path290" /><path
         d="m 1642.22,2990.84 96.1,-31.68 37.76,106.57 -100.71,39.46 -33.15,-114.35"
         style="fill:#c7777a;fill-opacity:1;fill-rule:nonzero;stroke:none"
         id="path292" /><path
         d="m 1727.02,3099.17 -84.8,-190.26 c 0,0 153.98,-56.58 267.18,24.34 l 14.84,171.94 -197.22,-6.02"
         style="fill:#ffffff;fill-opacity:1;fill-rule:nonzero;stroke:none"
         id="path294" /><path
         d="m 1725.52,3095.81 177.79,15.89"
         style="fill:none;stroke:#cfeae7;stroke-width:10.6487;stroke-linecap:round;stroke-linejoin:round;stroke-miterlimit:10;stroke-dasharray:none;stroke-opacity:1"
         id="path296" /><path
         d="m 1124.34,3706.32 c 0,0 -251.723,-33.14 -558.57,-513.07 l 181.222,-149.01 c 0,0 247.356,270.74 405.498,370.87 l -28.15,291.21"
         style="fill:#ffffff;fill-opacity:1;fill-rule:nonzero;stroke:none"
         id="path298" /><path
         d="m 1075.97,3354 51.2,44.16"
         style="fill:none;stroke:#cfeae7;stroke-width:10.6487;stroke-linecap:round;stroke-linejoin:round;stroke-miterlimit:10;stroke-dasharray:none;stroke-opacity:1"
         id="path300" /><path
         d="m 1276.98,2988.27 -126.69,42.96 7.22,28.44 c 2.63,10.34 -1.78,21.32 -10.75,26.79 -9.27,5.64 -21.01,3.97 -28.31,-4.04 l -100.11,-112.13 -76.031,-86.48 c 72.071,-45.98 143.941,-47.24 165.981,-32.58 2.93,-0.52 100.2,-18.23 100.2,-18.23 9.62,-2.58 19.44,3.01 22.4,12.77 2.15,7.09 1.59,17.8 -18.67,24.66 l 20.26,-6.86 c 10.18,-2.74 20.53,3.33 23.41,13.74 2.81,9.24 -4.12,19.74 -16.28,25.4 l 15.24,-3.54 c 11.1,-2.99 22.45,4.25 24.52,16.27 1.78,10.4 -4.99,20.48 -14.75,23.76 l -22.38,7.55 25.51,-2.25 c 11.95,-2.33 23.54,5.94 25.28,18.8 1.5,11.04 -5.77,21.48 -16.05,24.97"
         style="fill:#c7777a;fill-opacity:1;fill-rule:nonzero;stroke:none"
         id="path302" /><path
         d="m 1018.34,2970.29 -177.52,112.01 -48.925,-125.78 150.414,-72.71 76.031,86.48"
         style="fill:#c7777a;fill-opacity:1;fill-rule:nonzero;stroke:none"
         id="path304" /><path
         d="m 705.668,3221.9 307.512,-188.67 -97.774,-162.36 -298.89,139.39 c -66.395,22.78 -97.118,99.16 -64.989,161.56 v 0 c 28.926,56.17 97.727,78.53 154.141,50.08"
         style="fill:#ffffff;fill-opacity:1;fill-rule:nonzero;stroke:none"
         id="path306" /><path
         d="m 846.891,3135.26 -104.727,64.25"
         style="fill:none;stroke:#cfeae7;stroke-width:10.6487;stroke-linecap:round;stroke-linejoin:round;stroke-miterlimit:10;stroke-dasharray:none;stroke-opacity:1"
         id="path308" /><path
         d="m 6092.99,637.148 h -170.15 l -281.39,-150.539 483.83,5.77 -32.29,144.769"
         style="fill:#101010;fill-opacity:1;fill-rule:nonzero;stroke:none"
         id="path310" /><path
         d="m 6126.97,428.711 -1.69,63.668 -483.83,-5.758 1.68,-63.68 483.84,5.77"
         style="fill:#ffffff;fill-opacity:1;fill-rule:nonzero;stroke:none"
         id="path312" /><path
         d="m 5930.46,877.031 h 173.44 l -10.91,-239.883 h -173.43 l 10.9,239.883"
         style="fill:#f5b087;fill-opacity:1;fill-rule:nonzero;stroke:none"
         id="path314" /><path
         d="m 6621.72,637.148 h -170.15 l -281.39,-150.539 483.83,5.77 -32.29,144.769"
         style="fill:#101010;fill-opacity:1;fill-rule:nonzero;stroke:none"
         id="path316" /><path
         d="m 6655.7,428.711 -1.69,63.668 -483.83,-5.758 1.68,-63.68 483.84,5.77"
         style="fill:#ffffff;fill-opacity:1;fill-rule:nonzero;stroke:none"
         id="path318" /><path
         d="m 6425.13,877.031 h 173.43 l 23.16,-239.883 h -173.43 l -23.16,239.883"
         style="fill:#f5b087;fill-opacity:1;fill-rule:nonzero;stroke:none"
         id="path320" /><path
         d="m 6566.03,2302.89 c 13.31,290.83 -37.63,442.21 -59.24,535.92 l -3.22,42.84 -7.87,1.82 c -1.47,5.42 -2.34,8.4 -2.34,8.4 l -2.49,-7.29 -290.76,66.94 -305.22,20.12 -12.68,-212.16 c -2.1,-62.35 -6.8,-411.32 -2.9,-473.57 l 1.24,-1564.629 h 307.58 l 12.66,1613.349 173.57,-1613.349 290.79,6.828 -99.12,1574.781"
         style="fill:#5fbba6;fill-opacity:1;fill-rule:nonzero;stroke:none"
         id="path322" /><path
         d="m 5879.65,2622.43 v -49.28 l 683.52,-36.27 -10.07,75.03 -673.45,10.52"
         style="fill:#50ab95;fill-opacity:1;fill-rule:nonzero;stroke:none"
         id="path324" /><path
         d="m 6200.11,2334.63 -141.89,23.52"
         style="fill:none;stroke:#1f0004;stroke-width:4.90311;stroke-linecap:round;stroke-linejoin:round;stroke-miterlimit:10;stroke-dasharray:none;stroke-opacity:1"
         id="path326" /><path
         d="m 6282.23,3751.03 183.21,-8.71 c 24.82,0 72.55,-34.34 69.97,-82.47 -5.78,-107.94 70.93,-1068.29 70.93,-1068.29 l -757.42,11.19 14.71,1023.32 c 0.91,33.53 9.01,90.21 41.78,97.38 l 184.18,29.41 192.64,-1.83"
         style="fill:#5fbba6;fill-opacity:1;fill-rule:nonzero;stroke:none"
         id="path328" /><path
         d="m 6341.4,3749.23 -99.81,6.19 -152,-2.56 -52.88,-8.45 46.38,-169.21 258.31,174.03"
         style="fill:#f5b087;fill-opacity:1;fill-rule:nonzero;stroke:none"
         id="path330" /><path
         d="m 6335.02,3387.35 h -179.55 v 93.64 h 179.55 v -93.64"
         style="fill:#ffffff;fill-opacity:1;fill-rule:nonzero;stroke:none"
         id="path332" /><path
         d="m 5684.65,3255.61 -47.94,-203.05 c -18.33,-80.92 50.43,-133.3 113.67,-142.13 v 0 c 57.97,-8.08 112.19,30.42 123.65,87.82 l -2.25,243.12 -187.13,14.24"
         style="fill:#f5b087;fill-opacity:1;fill-rule:nonzero;stroke:none"
         id="path334" /><path
         d="m 5905.41,3723.45 c -4.33,-1.07 -173.18,2.41 -249.87,-505.22 l 215.36,-49.33 34.51,554.55"
         style="fill:#5fbba6;fill-opacity:1;fill-rule:nonzero;stroke:none"
         id="path336" /><path
         d="m 5871.78,3189.21 3.52,246.15"
         style="fill:none;stroke:#1f0004;stroke-width:4.90311;stroke-linecap:round;stroke-linejoin:round;stroke-miterlimit:10;stroke-dasharray:none;stroke-opacity:1"
         id="path338" /><path
         d="m 5777.18,2910.08 c 0,0 298.86,76.98 549.59,192.96 l -64.43,50.06 -458.19,-59.22 -26.97,-183.8"
         style="fill:#f5b087;fill-opacity:1;fill-rule:nonzero;stroke:none"
         id="path340" /><path
         d="m 6234.9,3138.87 c 0,0 162.45,198.94 245.47,0 l 18.73,-41.21 -103.05,-50.87 -124.43,26.67 -36.72,65.41"
         style="fill:#f5b087;fill-opacity:1;fill-rule:nonzero;stroke:none"
         id="path342" /><path
         d="m 6018.29,3118 c -5.94,-0.77 -77.33,110.15 -181.16,55.38 -103.83,-54.76 -39.88,-126.59 -39.88,-126.59 l 221.04,71.21"
         style="fill:#f5b087;fill-opacity:1;fill-rule:nonzero;stroke:none"
         id="path344" /><path
         d="m 6012.44,3119.76 c 0,0 -164.92,4.18 -275.3,-39.71"
         style="fill:none;stroke:#1f0004;stroke-width:4.90311;stroke-linecap:round;stroke-linejoin:round;stroke-miterlimit:10;stroke-dasharray:none;stroke-opacity:1"
         id="path346" /><path
         d="m 5841.55,3175.62 c 0,0 -53.08,-17.61 -64.17,-81.6"
         style="fill:none;stroke:#1f0004;stroke-width:4.90311;stroke-linecap:round;stroke-linejoin:round;stroke-miterlimit:10;stroke-dasharray:none;stroke-opacity:1"
         id="path348" /><path
         d="m 6494.52,3731.75 c 0,0 196.75,-13.39 277.88,-534.22 l -292.03,-58.66 14.15,592.88"
         style="fill:#5fbba6;fill-opacity:1;fill-rule:nonzero;stroke:none"
         id="path350" /><path
         d="m 6480.37,3138.87 -56.15,260.71"
         style="fill:none;stroke:#1f0004;stroke-width:4.90311;stroke-linecap:round;stroke-linejoin:round;stroke-miterlimit:10;stroke-dasharray:none;stroke-opacity:1"
         id="path352" /><path
         d="m 6480.37,3138.87 v -24.34 l -186.92,-5.75 -198.52,-99.48 c 0,0 303.18,-111.04 512.32,-93.12 67.89,5.81 119.32,61.51 120.94,127.63 0.25,9.99 -1.17,19.96 -3.18,29.74 l -22.56,109.93 -222.08,-44.61"
         style="fill:#f5b087;fill-opacity:1;fill-rule:nonzero;stroke:none"
         id="path354" /><path
         d="m 6094.93,3009.3 198.52,99.48 c 0,0 113.5,9.22 186.92,30.09"
         style="fill:none;stroke:#1f0004;stroke-width:4.90311;stroke-linecap:round;stroke-linejoin:round;stroke-miterlimit:10;stroke-dasharray:none;stroke-opacity:1"
         id="path356" /><path
         d="m 6272.12,4404.93 c 0,0 88.77,22.93 123.12,-70.67 44.69,-121.74 -80.99,-260.01 -80.99,-260.01 l -42.13,330.68"
         style="fill:#cd615a;fill-opacity:1;fill-rule:nonzero;stroke:none"
         id="path358" /><path
         d="m 6265.13,4350.49 c 0,0 43.57,72.26 -29.7,113.1 -73.28,40.83 -110.67,-1.88 -179.58,-23.23 -68.91,-21.36 -145.49,33.29 -193.01,-48.31 -55.45,-95.21 83.32,-264.66 83.32,-264.66 l 318.97,223.1"
         style="fill:#cd615a;fill-opacity:1;fill-rule:nonzero;stroke:none"
         id="path360" /><path
         d="m 5988.59,4104.87 c -7.24,-32.09 -39.14,-52.23 -71.23,-44.99 -32.09,7.25 -52.22,39.14 -44.98,71.23 7.25,32.09 39.13,52.23 71.22,44.99 32.1,-7.25 52.24,-39.14 44.99,-71.23"
         style="fill:#e09069;fill-opacity:1;fill-rule:nonzero;stroke:none"
         id="path362" /><path
         d="m 6080.03,3972.26 -7.79,-229.19 197.01,5.31 -51.01,379.01 -138.21,-155.13"
         style="fill:#f5b087;fill-opacity:1;fill-rule:nonzero;stroke:none"
         id="path364" /><path
         d="m 6075.44,3837.39 129.4,149.56 -125.38,-25.41 z"
         style="fill:#e09069;fill-opacity:1;fill-rule:nonzero;stroke:none"
         id="path366" /><path
         d="m 5997.51,4372.38 c -60.18,-8.05 -89.49,-71.81 -95.46,-129.02 -6.85,-65.89 -4.92,-170.68 15.56,-220.7 31.67,-77.34 105.7,-118.93 207.38,-91.36 0,0 110.44,14.1 121.41,192.92 13.05,212.94 -120.83,265.29 -248.89,248.16"
         style="fill:#f5b087;fill-opacity:1;fill-rule:nonzero;stroke:none"
         id="path368" /><path
         d="m 5937.1,4154.49 c -1.39,-7.4 -8.51,-12.27 -15.91,-10.89 -7.39,1.38 -12.27,8.51 -10.89,15.9 1.39,7.4 8.51,12.28 15.9,10.89 7.4,-1.37 12.28,-8.5 10.9,-15.9"
         style="fill:#210702;fill-opacity:1;fill-rule:nonzero;stroke:none"
         id="path370" /><path
         d="m 6052.16,4154.49 c -1.39,-7.4 -8.51,-12.27 -15.91,-10.89 -7.39,1.38 -12.28,8.51 -10.89,15.9 1.39,7.4 8.51,12.28 15.91,10.89 7.39,-1.37 12.27,-8.5 10.89,-15.9"
         style="fill:#210702;fill-opacity:1;fill-rule:nonzero;stroke:none"
         id="path372" /><path
         d="m 5958.25,4120.26 -12.09,-41.72 24.19,-7.2"
         style="fill:none;stroke:#1f0004;stroke-width:4.80104;stroke-linecap:round;stroke-linejoin:round;stroke-miterlimit:10;stroke-dasharray:none;stroke-opacity:1"
         id="path374" /><path
         d="m 5949.05,4252.07 c 0,0 5.37,-16.17 -14.76,-19.48 -15.3,-2.51 -25,-3.86 -33.57,-7.57 -4.85,-2.11 -10.51,-0.39 -13.41,4.02 v 0 c -2.34,3.56 -2.42,8.17 -0.08,11.74 4.73,7.22 14.87,18.44 33.43,21.76 23.85,4.25 28.39,-10.47 28.39,-10.47"
         style="fill:#210702;fill-opacity:1;fill-rule:nonzero;stroke:none"
         id="path376" /><path
         d="m 6019.58,4251.38 c 0,0 -6.16,-16.29 19.8,-19.13 19.72,-2.16 43.3,-9.59 54.44,-13.11 6.32,-1.98 13.5,-0.14 17.02,4.34 v 0 c 2.83,3.61 2.73,8.22 -0.42,11.73 -6.4,7.13 -30.95,24.41 -54.91,27.29 -30.76,3.7 -35.93,-11.12 -35.93,-11.12"
         style="fill:#210702;fill-opacity:1;fill-rule:nonzero;stroke:none"
         id="path378" /><path
         d="m 5968.37,4035.03 c 0,0 41.81,-8.72 66.86,16.65"
         style="fill:none;stroke:#1f0004;stroke-width:4.80104;stroke-linecap:round;stroke-linejoin:round;stroke-miterlimit:10;stroke-dasharray:none;stroke-opacity:1"
         id="path380" /><path
         d="m 5949.21,4095.97 c 0,0 190.94,-16.14 263.35,-97.11 0,0 -21.03,-66.83 -132.2,-76.77 -41.05,-3.67 -83.84,8.44 -110.01,26.85 -24.19,17.01 -55.59,52.82 -63.81,114.51 l 42.67,32.52"
         style="fill:#5fbba6;fill-opacity:1;fill-rule:nonzero;stroke:none"
         id="path382" /><path
         d="M 6219.42,4150.64 6119.15,4042.63"
         style="fill:none;stroke:#5fbba6;stroke-width:10;stroke-linecap:butt;stroke-linejoin:miter;stroke-miterlimit:10;stroke-dasharray:none;stroke-opacity:1"
         id="path384" /><path
         d="m 6235.43,4067.21 -32.01,-76.13"
         style="fill:none;stroke:#5fbba6;stroke-width:10;stroke-linecap:butt;stroke-linejoin:miter;stroke-miterlimit:10;stroke-dasharray:none;stroke-opacity:1"
         id="path386" /><path
         d="m 6128.92,4147.01 c 0,-39.19 -31.77,-70.96 -70.96,-70.96 -39.19,0 -70.96,31.77 -70.96,70.96 0,39.18 31.77,70.95 70.96,70.95 39.19,0 70.96,-31.77 70.96,-70.95 z"
         style="fill:none;stroke:#ffffff;stroke-width:10;stroke-linecap:butt;stroke-linejoin:miter;stroke-miterlimit:10;stroke-dasharray:none;stroke-opacity:1"
         id="path388" /><path
         d="m 5947.9,4147.01 c 0,-37.11 -22.86,-67.18 -51.06,-67.18 -28.21,0 -51.07,30.07 -51.07,67.18 0,37.1 22.86,67.17 51.07,67.17 28.2,0 51.06,-30.07 51.06,-67.17 z"
         style="fill:none;stroke:#ffffff;stroke-width:10;stroke-linecap:butt;stroke-linejoin:miter;stroke-miterlimit:10;stroke-dasharray:none;stroke-opacity:1"
         id="path390" /><path
         d="m 5947.87,4149.02 c 0,0 20.79,13.09 39.13,-2.01"
         style="fill:none;stroke:#ffffff;stroke-width:10;stroke-linecap:butt;stroke-linejoin:miter;stroke-miterlimit:10;stroke-dasharray:none;stroke-opacity:1"
         id="path392" /><path
         d="m 6227.63,4151.05 h -98.71"
         style="fill:none;stroke:#ffffff;stroke-width:10;stroke-linecap:butt;stroke-linejoin:miter;stroke-miterlimit:10;stroke-dasharray:none;stroke-opacity:1"
         id="path394" /><path
         d="m 6223.6,4086.73 45.48,166.06 c -19.42,43.85 -48.75,37.22 -48.75,37.22 0.58,2.93 -39.8,22.85 -39.26,25.93 -162.12,124 -250.58,11.94 -250.58,11.94 0,0 47.81,119.07 245.65,103.38 139.41,-11.05 184.75,-57.99 179.12,-148.99 -11.23,-181.45 -33.13,-198.31 -114.82,-319.83 l -16.84,124.29"
         style="fill:#cd615a;fill-opacity:1;fill-rule:nonzero;stroke:none"
         id="path396" /><path
         d="m 6242,4338.77 c 0,0 -80.77,-63.55 -36.72,-148.66 l 14.23,-76.38 97.15,104.54 -24.39,115.54 -50.27,4.96"
         style="fill:#cd615a;fill-opacity:1;fill-rule:nonzero;stroke:none"
         id="path398" /><path
         d="m 5949.7,4345.63 c 0,0 52.87,36.83 89.06,-9.61 72.55,-93.12 208.86,-102.81 223.24,6.25 14.39,109.07 -160.26,75.86 -160.26,75.86 0,0 -119.31,-29.48 -152.04,-72.5"
         style="fill:#cd615a;fill-opacity:1;fill-rule:nonzero;stroke:none"
         id="path400" /><path
         d="m 6328.95,4097.72 c -7.97,-35.24 -42.99,-57.36 -78.24,-49.4 -35.24,7.95 -57.36,42.98 -49.4,78.23 7.96,35.24 42.98,57.36 78.22,49.4 35.26,-7.96 57.37,-42.98 49.42,-78.23"
         style="fill:#f5b087;fill-opacity:1;fill-rule:nonzero;stroke:none"
         id="path402" /><path
         d="m 6293.18,4133.32 c 0,0 -48.83,10.29 -57.75,-43.28"
         style="fill:none;stroke:#1f0004;stroke-width:4.80104;stroke-linecap:round;stroke-linejoin:round;stroke-miterlimit:10;stroke-dasharray:none;stroke-opacity:1"
         id="path404" /><path
         d="M 369.691,422.941 H 7150.13"
         style="fill:none;stroke:#a8d4cd;stroke-width:15.5216;stroke-linecap:butt;stroke-linejoin:miter;stroke-miterlimit:10;stroke-dasharray:none;stroke-opacity:1"
         id="path406" /></g></g></svg>
